<svg width="296" height="296" viewBox="0 0 296 296" fill="none" xmlns="http://www.w3.org/2000/svg">
<g filter="url(#filter0_d)">
<rect x="20" y="9" width="256" height="256" rx="10" fill="#C4C4C4"/>
<path d="M104.742 46.4043C104.742 47.8717 104.527 49.1079 104.096 50.1128C103.666 51.1177 103.091 51.9471 102.374 52.6011C101.656 53.255 100.834 53.7655 99.9092 54.1323C98.984 54.4992 98.035 54.7624 97.062 54.9219C98.2902 55.3685 99.2871 55.9347 100.053 56.6206C100.834 57.3065 101.44 58.0243 101.871 58.7739C102.318 59.5076 102.621 60.2334 102.78 60.9512C102.94 61.653 103.02 62.2432 103.02 62.7217C103.02 63.918 102.844 64.9627 102.493 65.856C102.142 66.7492 101.664 67.5148 101.058 68.1528C100.467 68.7909 99.7736 69.3172 98.9761 69.7319C98.1785 70.1466 97.3252 70.4816 96.416 70.7368C95.5228 70.9761 94.5977 71.1436 93.6406 71.2393C92.6995 71.335 91.7824 71.3828 90.8892 71.3828C90.5861 71.3828 90.2751 71.3748 89.9561 71.3589C89.653 71.3589 89.2702 71.3429 88.8076 71.311C88.3451 71.2951 87.7629 71.2632 87.061 71.2153C86.3752 71.1675 85.4899 71.1037 84.4053 71.0239C83.3206 70.9442 82.0047 70.8485 80.4575 70.7368C78.9103 70.6092 77.0601 70.4657 74.9067 70.3062L80.6968 66.7412L82.3955 41.4517L76.127 37.3843C79.0778 37.4162 81.6618 37.4481 83.8789 37.48C86.112 37.5119 87.9941 37.5438 89.5254 37.5757C91.3118 37.6076 92.8431 37.6395 94.1191 37.6714C95.3633 37.6714 96.6154 37.8628 97.8755 38.2456C99.1515 38.6125 100.292 39.1628 101.297 39.8965C102.318 40.6302 103.147 41.5474 103.785 42.6479C104.423 43.7326 104.742 44.9847 104.742 46.4043ZM98.4258 46.5479C98.4258 46.4043 98.4019 46.1571 98.354 45.8062C98.3221 45.4393 98.2104 45.0326 98.019 44.5859C97.8436 44.1234 97.5645 43.6449 97.1816 43.1504C96.7988 42.64 96.2645 42.1774 95.5786 41.7627C94.8927 41.348 94.0234 41.005 92.9707 40.7339C91.9339 40.4468 90.6659 40.2952 89.1665 40.2793C88.369 40.2793 87.5874 40.3271 86.8218 40.4229V53.6538C87.2365 53.6857 87.6512 53.7017 88.0659 53.7017C88.4806 53.7017 88.8475 53.7017 89.1665 53.7017C90.6978 53.7017 91.9897 53.5501 93.0425 53.2471C94.0952 52.944 94.9645 52.5532 95.6504 52.0747C96.3363 51.5962 96.8626 51.0778 97.2295 50.5195C97.6123 49.9453 97.8914 49.395 98.0669 48.8687C98.2424 48.3263 98.346 47.8478 98.3779 47.4331C98.4098 47.0184 98.4258 46.7233 98.4258 46.5479ZM89.3101 56.2617C88.9591 56.2617 88.5604 56.2617 88.1138 56.2617C87.6672 56.2617 87.2365 56.2777 86.8218 56.3096V67.8179C87.5396 67.9455 88.2015 68.0332 88.8076 68.0811C89.4137 68.1289 90.0199 68.1528 90.626 68.1528C91.4395 68.1528 92.245 68.0651 93.0425 67.8896C93.856 67.6982 94.5817 67.3792 95.2197 66.9326C95.8737 66.4701 96.4001 65.856 96.7988 65.0903C97.1976 64.3247 97.397 63.3677 97.397 62.2192C97.397 61.6291 97.2614 60.9831 96.9902 60.2812C96.7191 59.5794 96.2725 58.9334 95.6504 58.3433C95.0283 57.7531 94.1989 57.2586 93.1621 56.8599C92.1253 56.4611 90.8413 56.2617 89.3101 56.2617ZM128.189 56.0942C128.189 56.9396 128.142 57.8488 128.046 58.8218C127.95 59.7948 127.807 60.7837 127.615 61.7886C127.44 62.7935 127.224 63.7824 126.969 64.7554C126.73 65.7124 126.467 66.5977 126.18 67.4111L131.276 71L122.256 70.6172L122.806 67.6743C121.849 68.8706 120.741 69.7878 119.48 70.4258C118.236 71.0479 116.793 71.4227 115.15 71.5503C113.81 71.646 112.638 71.5503 111.633 71.2632C110.644 70.992 109.814 70.5693 109.145 69.9951C108.491 69.4049 108.004 68.6872 107.685 67.8418C107.366 66.9805 107.207 66.0234 107.207 64.9707C107.207 63.9977 107.446 63.0566 107.924 62.1475C108.403 61.2223 109.089 60.4089 109.982 59.707C110.891 59.0052 112 58.4469 113.308 58.0322C114.616 57.6016 116.099 57.3862 117.758 57.3862C118.523 57.3862 119.401 57.458 120.39 57.6016C121.395 57.7451 122.344 58.0482 123.237 58.5107C123.157 57.5378 123.006 56.5488 122.782 55.5439C122.575 54.5231 122.264 53.598 121.849 52.7686C121.434 51.9391 120.892 51.2692 120.222 50.7588C119.568 50.2324 118.747 49.9692 117.758 49.9692C116.912 49.9692 116.091 50.1447 115.293 50.4956C114.496 50.8465 113.746 51.349 113.044 52.0029C112.359 52.6569 111.736 53.4544 111.178 54.3955C110.62 55.3366 110.149 56.3973 109.767 57.5776L107.757 45.854L110.795 50.5195C111.545 49.5944 112.303 48.8607 113.068 48.3184C113.834 47.7601 114.592 47.3374 115.341 47.0503C116.107 46.7472 116.841 46.5479 117.542 46.4521C118.26 46.3564 118.946 46.3086 119.6 46.3086C120.828 46.3724 121.961 46.6276 122.998 47.0742C124.05 47.5049 124.959 48.1349 125.725 48.9644C126.491 49.7778 127.089 50.7827 127.52 51.979C127.966 53.1753 128.189 54.547 128.189 56.0942ZM123.237 63.7505C123.269 63.3039 123.293 62.8732 123.309 62.4585C123.325 62.0438 123.333 61.637 123.333 61.2383V60.9512C122.758 60.7279 122.176 60.5604 121.586 60.4487C121.012 60.3211 120.477 60.2334 119.983 60.1855C119.488 60.1217 119.066 60.0898 118.715 60.0898C118.38 60.0739 118.157 60.0659 118.045 60.0659C117.136 60.0978 116.346 60.2653 115.676 60.5684C115.006 60.8714 114.448 61.2542 114.001 61.7168C113.571 62.1634 113.244 62.6659 113.021 63.2241C112.813 63.7824 112.709 64.3327 112.709 64.875C112.709 66.1032 113.005 67.0363 113.595 67.6743C114.201 68.2964 115.078 68.6074 116.227 68.6074C116.992 68.6074 117.718 68.4718 118.404 68.2007C119.09 67.9295 119.728 67.5706 120.318 67.124C120.924 66.6615 121.466 66.1431 121.945 65.5688C122.439 64.9787 122.87 64.3726 123.237 63.7505ZM148.957 54.6826C148.813 54.0924 148.606 53.59 148.335 53.1753C148.08 52.7606 147.785 52.4176 147.45 52.1465C147.131 51.8594 146.788 51.644 146.421 51.5005C146.054 51.341 145.687 51.2214 145.32 51.1416C144.459 50.9661 143.542 50.9741 142.569 51.1655C142.234 51.2772 141.875 51.4526 141.492 51.6919C141.157 51.9152 140.774 52.2183 140.344 52.6011C139.913 52.9679 139.451 53.4624 138.956 54.0845L139.387 67.9614L143.693 70.1147L131.013 71.2393L134.291 67.9136L135.63 51.2612L130.534 48.9404L138.765 47.3853L138.86 50.376C139.419 49.7061 139.993 49.1558 140.583 48.7251C141.173 48.2944 141.708 47.9435 142.186 47.6724C142.744 47.3693 143.287 47.138 143.813 46.9785C144.77 46.7552 145.743 46.6675 146.732 46.7153C147.147 46.7313 147.577 46.7791 148.024 46.8589C148.486 46.9386 148.949 47.0662 149.412 47.2417C149.89 47.4012 150.353 47.6245 150.799 47.9116C151.246 48.1828 151.677 48.5257 152.091 48.9404L148.957 54.6826ZM164.078 71.5503C163.217 71.5503 162.419 71.4147 161.686 71.1436C160.952 70.8724 160.298 70.5055 159.724 70.043C159.149 69.5804 158.647 69.0461 158.216 68.4399C157.802 67.8179 157.475 67.1559 157.235 66.4541L154.819 72.0288L153.886 43.4614L147.88 41.1167L160.561 39.6812C160.242 42.0099 159.971 44.0915 159.748 45.9258C159.524 47.7441 159.341 49.3711 159.197 50.8066C160.059 49.5146 161.103 48.4699 162.332 47.6724C163.576 46.8589 164.995 46.4521 166.59 46.4521C167.771 46.4521 168.799 46.5957 169.677 46.8828C170.554 47.1699 171.304 47.5687 171.926 48.0791C172.564 48.5736 173.082 49.1637 173.481 49.8496C173.896 50.5195 174.223 51.2373 174.462 52.0029C174.701 52.7686 174.869 53.5581 174.964 54.3716C175.06 55.1851 175.108 55.9906 175.108 56.7881C175.108 58.9414 174.869 60.9272 174.39 62.7456C173.928 64.548 173.234 66.1032 172.309 67.4111C171.399 68.7191 170.251 69.7399 168.863 70.4736C167.492 71.1914 165.896 71.5503 164.078 71.5503ZM164.437 50.1367C163.767 50.1367 163.137 50.3042 162.547 50.6392C161.957 50.9741 161.414 51.4287 160.92 52.0029C160.441 52.5771 160.011 53.2471 159.628 54.0127C159.261 54.7624 158.95 55.5599 158.695 56.4053C158.663 56.8678 158.639 57.2666 158.623 57.6016C158.607 57.9206 158.599 58.1917 158.599 58.415C158.583 58.6862 158.583 58.9095 158.599 59.085C158.599 60.9352 158.735 62.4665 159.006 63.6787C159.277 64.891 159.644 65.8639 160.106 66.5977C160.569 67.3154 161.103 67.8258 161.709 68.1289C162.332 68.416 162.978 68.5596 163.647 68.5596C164.317 68.5596 165.003 68.3044 165.705 67.7939C166.407 67.2835 167.045 66.5498 167.619 65.5928C168.209 64.6357 168.688 63.4793 169.055 62.1235C169.438 60.7677 169.629 59.2365 169.629 57.5298C169.629 56.3335 169.485 55.2728 169.198 54.3477C168.911 53.4225 168.52 52.6489 168.026 52.0269C167.547 51.4048 166.997 50.9342 166.375 50.6152C165.753 50.2962 165.107 50.1367 164.437 50.1367ZM183.578 62.2192C183.785 63.1125 184.064 63.9897 184.415 64.8511C184.766 65.6965 185.197 66.4541 185.707 67.124C186.217 67.7939 186.808 68.3363 187.478 68.751C188.147 69.1657 188.905 69.373 189.75 69.373C190.867 69.373 191.84 69.1418 192.669 68.6792C193.499 68.2166 194.177 67.6344 194.703 66.9326C195.229 66.2148 195.596 65.4333 195.804 64.5879C196.011 63.7266 196.051 62.9051 195.923 62.1235C196.37 62.299 196.737 62.5303 197.024 62.8174C197.327 63.1045 197.558 63.4235 197.718 63.7744C197.893 64.1094 198.013 64.4603 198.077 64.8271C198.14 65.1781 198.172 65.521 198.172 65.856C198.172 66.6216 197.949 67.3633 197.502 68.0811C197.056 68.7829 196.426 69.4129 195.612 69.9712C194.815 70.5135 193.866 70.9521 192.765 71.2871C191.665 71.6221 190.46 71.7896 189.152 71.7896C187.398 71.7896 185.827 71.4466 184.439 70.7607C183.067 70.0749 181.903 69.1497 180.946 67.9854C179.989 66.805 179.255 65.4253 178.745 63.8462C178.234 62.2671 177.979 60.5843 177.979 58.7979C177.979 56.9795 178.234 55.3047 178.745 53.7734C179.255 52.2262 180.005 50.9103 180.994 49.8257C181.999 48.741 183.227 47.9196 184.678 47.3613C186.13 46.8031 187.805 46.5798 189.703 46.6914C191.011 46.7871 192.215 47.1619 193.315 47.8159C194.416 48.4699 195.373 49.3153 196.187 50.3521C197.016 51.3729 197.678 52.5452 198.172 53.8691C198.683 55.193 198.994 56.5728 199.105 58.0083L183.578 62.2192ZM183.123 58.3672C183.123 58.5905 183.123 58.8138 183.123 59.0371C183.123 59.2445 183.139 59.4598 183.171 59.6831L193.674 55.855C193.323 54.7065 192.925 53.7256 192.478 52.9121C192.047 52.0827 191.593 51.4048 191.114 50.8784C190.636 50.3521 190.149 49.9692 189.655 49.73C189.176 49.4748 188.714 49.3472 188.267 49.3472C187.597 49.3472 187.007 49.4748 186.497 49.73C185.986 49.9852 185.54 50.3361 185.157 50.7827C184.79 51.2134 184.471 51.7238 184.2 52.314C183.944 52.9041 183.737 53.5342 183.578 54.2041C183.418 54.874 183.299 55.5679 183.219 56.2856C183.155 56.9875 183.123 57.6813 183.123 58.3672ZM218.15 54.6826C218.007 54.0924 217.799 53.59 217.528 53.1753C217.273 52.7606 216.978 52.4176 216.643 52.1465C216.324 51.8594 215.981 51.644 215.614 51.5005C215.247 51.341 214.881 51.2214 214.514 51.1416C213.652 50.9661 212.735 50.9741 211.762 51.1655C211.427 51.2772 211.068 51.4526 210.686 51.6919C210.351 51.9152 209.968 52.2183 209.537 52.6011C209.106 52.9679 208.644 53.4624 208.149 54.0845L208.58 67.9614L212.887 70.1147L200.206 71.2393L203.484 67.9136L204.824 51.2612L199.728 48.9404L207.958 47.3853L208.054 50.376C208.612 49.7061 209.186 49.1558 209.776 48.7251C210.367 48.2944 210.901 47.9435 211.379 47.6724C211.938 47.3693 212.48 47.138 213.006 46.9785C213.963 46.7552 214.936 46.6675 215.925 46.7153C216.34 46.7313 216.771 46.7791 217.217 46.8589C217.68 46.9386 218.142 47.0662 218.605 47.2417C219.083 47.4012 219.546 47.6245 219.993 47.9116C220.439 48.1828 220.87 48.5257 221.285 48.9404L218.15 54.6826ZM108.738 95.6045C109.822 95.6045 110.859 95.7082 111.848 95.9155C112.853 96.1069 113.786 96.3701 114.647 96.7051C115.509 97.0241 116.29 97.391 116.992 97.8057C117.694 98.2204 118.292 98.6351 118.787 99.0498L125.007 94.7671L117.854 108.5L117.303 101.299C116.841 100.98 116.338 100.701 115.796 100.461C115.27 100.206 114.735 99.9989 114.193 99.8394C113.667 99.6639 113.156 99.5283 112.662 99.4326C112.167 99.321 111.729 99.2332 111.346 99.1694C110.963 99.1056 110.652 99.0658 110.413 99.0498C110.189 99.0179 110.07 99.002 110.054 99.002C108.969 99.002 108.06 99.1216 107.326 99.3608C106.592 99.6001 105.994 99.9111 105.532 100.294C105.085 100.677 104.758 101.115 104.551 101.61C104.359 102.088 104.264 102.575 104.264 103.069C104.264 104.074 104.471 104.928 104.886 105.629C105.3 106.315 105.931 106.929 106.776 107.472C107.621 108.014 108.698 108.524 110.006 109.003C111.314 109.465 112.853 109.968 114.624 110.51C115.692 110.845 116.697 111.3 117.638 111.874C118.595 112.432 119.425 113.094 120.126 113.86C120.828 114.61 121.379 115.455 121.777 116.396C122.192 117.321 122.399 118.318 122.399 119.387C122.399 120.631 122.224 121.739 121.873 122.712C121.522 123.669 121.052 124.515 120.461 125.249C119.887 125.966 119.217 126.58 118.452 127.091C117.686 127.585 116.889 127.984 116.059 128.287C115.246 128.606 114.416 128.829 113.571 128.957C112.741 129.101 111.96 129.172 111.226 129.172C109.073 129.172 107.119 128.806 105.364 128.072C103.61 127.338 101.975 126.333 100.459 125.057L94.2388 129.316L101.177 117.018C101.369 118.167 101.704 119.275 102.182 120.344C102.677 121.396 103.283 122.338 104 123.167C104.718 123.996 105.548 124.658 106.489 125.153C107.43 125.647 108.459 125.895 109.575 125.895C110.468 125.895 111.282 125.759 112.016 125.488C112.765 125.217 113.403 124.858 113.93 124.411C114.456 123.949 114.863 123.422 115.15 122.832C115.453 122.226 115.604 121.596 115.604 120.942C115.604 120.033 115.349 119.251 114.839 118.597C114.328 117.927 113.659 117.337 112.829 116.827C112 116.3 111.051 115.822 109.982 115.391C108.929 114.944 107.845 114.49 106.728 114.027C105.611 113.565 104.519 113.054 103.45 112.496C102.397 111.938 101.456 111.284 100.627 110.534C99.7975 109.769 99.1276 108.875 98.6172 107.854C98.1068 106.834 97.8516 105.629 97.8516 104.242C97.8516 103.173 98.0589 102.128 98.4736 101.107C98.9043 100.071 99.5583 99.1455 100.436 98.332C101.329 97.5186 102.461 96.8646 103.833 96.3701C105.205 95.8597 106.84 95.6045 108.738 95.6045ZM123.38 127.713L127.065 124.722L128.764 98.0688L123.428 95.4131L131.898 94.0015L131.994 107.472C132.536 106.69 133.134 106.052 133.788 105.558C134.442 105.047 135.08 104.648 135.702 104.361C136.34 104.074 136.922 103.875 137.449 103.763C137.991 103.652 138.414 103.596 138.717 103.596C140.216 103.596 141.484 103.867 142.521 104.409C143.558 104.936 144.395 105.669 145.033 106.61C145.687 107.551 146.158 108.668 146.445 109.96C146.748 111.236 146.899 112.624 146.899 114.123C146.899 114.952 146.828 115.838 146.684 116.779C146.556 117.72 146.381 118.669 146.158 119.626C145.934 120.567 145.679 121.484 145.392 122.377C145.121 123.255 144.842 124.052 144.555 124.77L149.292 127.402L136.898 128.694L142.138 123.933C142.361 122.752 142.521 121.644 142.617 120.607C142.728 119.57 142.784 118.605 142.784 117.712C142.784 117.265 142.752 116.723 142.688 116.085C142.641 115.447 142.537 114.785 142.377 114.099C142.218 113.397 142.003 112.703 141.731 112.018C141.46 111.332 141.101 110.718 140.655 110.175C140.224 109.633 139.698 109.194 139.076 108.859C138.47 108.524 137.744 108.357 136.898 108.357C136.069 108.357 135.216 108.54 134.338 108.907C133.477 109.274 132.695 109.856 131.994 110.654L132.161 125.057L135.343 127.713H123.38ZM150.799 115.989C150.799 114.203 151.078 112.552 151.637 111.037C152.211 109.505 153 108.181 154.005 107.065C155.026 105.948 156.23 105.079 157.618 104.457C159.022 103.819 160.553 103.5 162.212 103.5C163.823 103.5 165.298 103.803 166.638 104.409C167.978 104.999 169.142 105.837 170.131 106.921C171.12 108.006 171.91 109.306 172.5 110.821C173.09 112.337 173.441 114.011 173.553 115.846C173.664 117.808 173.457 119.586 172.931 121.181C172.42 122.76 171.663 124.108 170.658 125.225C169.653 126.325 168.449 127.179 167.045 127.785C165.657 128.391 164.15 128.694 162.523 128.694C160.96 128.694 159.468 128.415 158.049 127.856C156.645 127.282 155.401 126.453 154.316 125.368C153.248 124.284 152.394 122.96 151.756 121.396C151.118 119.817 150.799 118.015 150.799 115.989ZM156.685 116.396C156.685 117.8 156.884 119.068 157.283 120.2C157.682 121.333 158.216 122.298 158.886 123.095C159.556 123.877 160.33 124.483 161.207 124.914C162.084 125.344 163.009 125.56 163.982 125.56C164.955 125.56 165.865 125.352 166.71 124.938C167.555 124.507 168.289 123.909 168.911 123.143C169.533 122.361 170.02 121.428 170.371 120.344C170.722 119.259 170.897 118.055 170.897 116.731C170.897 115.423 170.722 114.195 170.371 113.046C170.02 111.882 169.525 110.869 168.887 110.008C168.265 109.146 167.523 108.469 166.662 107.974C165.801 107.48 164.86 107.232 163.839 107.232C162.93 107.232 162.044 107.44 161.183 107.854C160.338 108.269 159.58 108.875 158.91 109.673C158.24 110.454 157.698 111.411 157.283 112.544C156.884 113.676 156.685 114.96 156.685 116.396ZM183.578 107.089C183.944 106.642 184.343 106.236 184.774 105.869C185.205 105.486 185.675 105.159 186.186 104.888C186.696 104.601 187.238 104.377 187.812 104.218C188.403 104.058 189.033 103.979 189.703 103.979C190.931 104.026 192.095 104.313 193.196 104.84C194.312 105.366 195.285 106.124 196.115 107.113C196.96 108.086 197.63 109.29 198.125 110.726C198.619 112.145 198.866 113.772 198.866 115.606C198.866 117.84 198.603 119.793 198.077 121.468C197.55 123.143 196.833 124.539 195.923 125.655C195.014 126.756 193.945 127.585 192.717 128.144C191.505 128.702 190.205 128.981 188.817 128.981C187.605 128.981 186.481 128.774 185.444 128.359C184.407 127.944 183.506 127.37 182.74 126.636L182.501 132.02L187.286 134.604L175.539 136.613L179.151 133L178.17 107.376L173.816 105.653L183.721 103.979L183.578 107.089ZM188.961 107.017C188.738 107.017 188.419 107.057 188.004 107.137C187.589 107.216 187.119 107.4 186.592 107.687C186.082 107.974 185.54 108.389 184.965 108.931C184.407 109.473 183.873 110.207 183.362 111.132L182.884 123.047C183.394 123.845 184.016 124.507 184.75 125.033C185.5 125.544 186.329 125.799 187.238 125.799C188.323 125.799 189.256 125.528 190.038 124.985C190.819 124.443 191.457 123.693 191.952 122.736C192.462 121.763 192.829 120.623 193.052 119.315C193.292 118.007 193.411 116.587 193.411 115.056C193.411 113.94 193.315 112.895 193.124 111.922C192.933 110.933 192.653 110.08 192.287 109.362C191.92 108.628 191.457 108.054 190.899 107.639C190.341 107.224 189.695 107.017 188.961 107.017ZM51.2666 153.604C52.3512 153.604 53.388 153.708 54.377 153.916C55.3818 154.107 56.3149 154.37 57.1763 154.705C58.0376 155.024 58.8192 155.391 59.521 155.806C60.2228 156.22 60.821 156.635 61.3154 157.05L67.5361 152.767L60.3823 166.5L59.832 159.299C59.3695 158.98 58.867 158.701 58.3247 158.461C57.7983 158.206 57.264 157.999 56.7217 157.839C56.1953 157.664 55.6849 157.528 55.1904 157.433C54.696 157.321 54.2573 157.233 53.8745 157.169C53.4917 157.106 53.1807 157.066 52.9414 157.05C52.7181 157.018 52.5985 157.002 52.5825 157.002C51.4979 157.002 50.5887 157.122 49.855 157.361C49.1213 157.6 48.5231 157.911 48.0605 158.294C47.6139 158.677 47.2869 159.115 47.0796 159.61C46.8882 160.088 46.7925 160.575 46.7925 161.069C46.7925 162.074 46.9998 162.928 47.4146 163.629C47.8293 164.315 48.4593 164.929 49.3047 165.472C50.1501 166.014 51.2267 166.524 52.5347 167.003C53.8426 167.465 55.3818 167.968 57.1523 168.51C58.221 168.845 59.2259 169.3 60.167 169.874C61.124 170.432 61.9535 171.094 62.6553 171.86C63.3571 172.61 63.9074 173.455 64.3062 174.396C64.7209 175.321 64.9282 176.318 64.9282 177.387C64.9282 178.631 64.7528 179.739 64.4019 180.712C64.0509 181.669 63.5804 182.515 62.9902 183.249C62.416 183.966 61.7461 184.58 60.9805 185.091C60.2148 185.585 59.4173 185.984 58.5879 186.287C57.7744 186.606 56.945 186.829 56.0996 186.957C55.2702 187.101 54.4886 187.172 53.7549 187.172C51.6016 187.172 49.6476 186.806 47.8931 186.072C46.1385 185.338 44.5036 184.333 42.9883 183.057L36.7676 187.316L43.7061 175.018C43.8975 176.167 44.2324 177.275 44.7109 178.344C45.2054 179.396 45.8115 180.338 46.5293 181.167C47.2471 181.996 48.0765 182.658 49.0176 183.153C49.9587 183.647 50.9875 183.895 52.104 183.895C52.9972 183.895 53.8107 183.759 54.5444 183.488C55.2941 183.217 55.9321 182.858 56.4585 182.411C56.9849 181.949 57.3916 181.422 57.6787 180.832C57.9818 180.226 58.1333 179.596 58.1333 178.942C58.1333 178.033 57.8781 177.251 57.3677 176.597C56.8573 175.927 56.1873 175.337 55.3579 174.827C54.5285 174.3 53.5794 173.822 52.5107 173.391C51.458 172.944 50.3734 172.49 49.2568 172.027C48.1403 171.565 47.0477 171.054 45.979 170.496C44.9263 169.938 43.9852 169.284 43.1558 168.534C42.3263 167.769 41.6564 166.875 41.146 165.854C40.6356 164.834 40.3804 163.629 40.3804 162.242C40.3804 161.173 40.5877 160.128 41.0024 159.107C41.4331 158.071 42.0871 157.146 42.9644 156.332C43.8576 155.519 44.9901 154.865 46.3618 154.37C47.7336 153.86 49.3685 153.604 51.2666 153.604ZM67.6797 186.239L71.436 183.296L70.6226 166.788L66.1963 163.893L76.4844 162.146L74.6421 181.334L79.7861 184.541L67.6797 186.239ZM76.7476 156.356C76.7476 156.834 76.6519 157.289 76.4604 157.72C76.269 158.134 76.0059 158.509 75.6709 158.844C75.3359 159.163 74.9531 159.418 74.5225 159.61C74.0918 159.785 73.6372 159.873 73.1587 159.873C72.6483 159.873 72.1698 159.785 71.7231 159.61C71.2925 159.418 70.9176 159.163 70.5986 158.844C70.2796 158.509 70.0244 158.134 69.833 157.72C69.6416 157.289 69.5459 156.834 69.5459 156.356C69.5459 155.861 69.6416 155.407 69.833 154.992C70.0244 154.562 70.2796 154.187 70.5986 153.868C70.9176 153.549 71.2925 153.301 71.7231 153.126C72.1698 152.935 72.6483 152.839 73.1587 152.839C73.6372 152.839 74.0918 152.935 74.5225 153.126C74.9531 153.301 75.3359 153.549 75.6709 153.868C76.0059 154.187 76.269 154.562 76.4604 154.992C76.6519 155.407 76.7476 155.861 76.7476 156.356ZM79.0923 186.239L82.2266 182.722L83.8535 166.5L78.8052 162.864L86.9399 163.414V165.854C87.5461 165.041 88.1761 164.411 88.8301 163.964C89.5 163.518 90.1141 163.191 90.6724 162.983C91.3263 162.744 91.9723 162.609 92.6104 162.577C93.7428 162.577 94.7716 162.808 95.6968 163.271C96.6219 163.733 97.3556 164.371 97.8979 165.185C98.5679 164.387 99.3335 163.757 100.195 163.294C101.056 162.816 101.989 162.577 102.994 162.577C103.903 162.577 104.749 162.784 105.53 163.199C106.312 163.613 106.982 164.196 107.54 164.945C108.114 165.695 108.561 166.612 108.88 167.697C109.215 168.765 109.382 169.954 109.382 171.262C109.382 172.203 109.319 173.184 109.191 174.205C109.079 175.225 108.92 176.238 108.712 177.243C108.521 178.248 108.282 179.229 107.995 180.186C107.708 181.127 107.396 182.004 107.062 182.818L110.459 184.325L98.5918 186.55L103.832 182.363C104.087 180.641 104.246 179.069 104.31 177.65C104.39 176.214 104.43 174.994 104.43 173.989C104.43 171.421 104.119 169.555 103.497 168.391C102.89 167.226 102.021 166.644 100.889 166.644C100.203 166.644 99.5169 166.891 98.8311 167.386C98.9268 167.769 98.9746 168.175 98.9746 168.606C98.9746 169.579 98.8949 170.584 98.7354 171.621C98.5918 172.657 98.4004 173.678 98.1611 174.683C97.9219 175.688 97.6507 176.661 97.3477 177.602C97.0446 178.543 96.7415 179.396 96.4385 180.162L99.812 182.818H90.1699L93.3999 180.21C93.5913 178.727 93.7269 177.211 93.8066 175.664C93.8864 174.101 93.9263 172.633 93.9263 171.262C93.9263 169.635 93.7349 168.359 93.3521 167.434C92.9852 166.508 92.3153 166.046 91.3423 166.046C90.8478 166.046 90.3853 166.142 89.9546 166.333C89.5399 166.524 89.1491 166.78 88.7822 167.099C88.4313 167.418 88.0964 167.785 87.7773 168.199C87.4743 168.614 87.1951 169.045 86.9399 169.491V182.531L90.9595 185.402L79.0923 186.239ZM133.643 162.72L134.576 183.296L138.883 185.306L129.073 187.125L129.528 180.114C129.081 181.055 128.571 181.957 127.997 182.818C127.422 183.663 126.776 184.413 126.059 185.067C125.341 185.705 124.551 186.215 123.69 186.598C122.845 186.981 121.927 187.172 120.938 187.172C119.758 187.172 118.721 186.965 117.828 186.55C116.935 186.136 116.185 185.569 115.579 184.852C114.973 184.118 114.51 183.264 114.191 182.292C113.888 181.303 113.737 180.25 113.737 179.133C113.737 178.097 113.817 177.02 113.976 175.903C114.136 174.787 114.351 173.686 114.622 172.602C114.909 171.501 115.244 170.44 115.627 169.419C116.026 168.383 116.456 167.426 116.919 166.548L111.871 165.376L121.345 162.146C120.739 163.757 120.269 165.304 119.934 166.788C119.615 168.255 119.375 169.563 119.216 170.711C119.04 172.051 118.929 173.295 118.881 174.444C118.881 175.927 118.985 177.211 119.192 178.296C119.399 179.365 119.686 180.258 120.053 180.976C120.42 181.677 120.859 182.204 121.369 182.555C121.88 182.89 122.438 183.057 123.044 183.057C123.969 183.057 124.799 182.81 125.532 182.315C126.266 181.821 126.912 181.159 127.47 180.33C128.044 179.484 128.531 178.503 128.93 177.387C129.344 176.27 129.679 175.09 129.935 173.846C130.206 172.602 130.405 171.333 130.533 170.042C130.66 168.75 130.732 167.505 130.748 166.309L125.556 162.72H133.643ZM144.625 183.009L149.41 184.923L137.423 186.096L141.73 182.722L140.988 156.882L135.461 154.49L147.568 152.887L144.625 183.009ZM171.685 171.094C171.685 171.94 171.637 172.849 171.542 173.822C171.446 174.795 171.302 175.784 171.111 176.789C170.935 177.793 170.72 178.782 170.465 179.755C170.226 180.712 169.962 181.598 169.675 182.411L174.771 186L165.751 185.617L166.302 182.674C165.345 183.871 164.236 184.788 162.976 185.426C161.732 186.048 160.288 186.423 158.646 186.55C157.306 186.646 156.133 186.55 155.128 186.263C154.139 185.992 153.31 185.569 152.64 184.995C151.986 184.405 151.5 183.687 151.181 182.842C150.862 181.98 150.702 181.023 150.702 179.971C150.702 178.998 150.941 178.057 151.42 177.147C151.898 176.222 152.584 175.409 153.478 174.707C154.387 174.005 155.495 173.447 156.803 173.032C158.111 172.602 159.595 172.386 161.253 172.386C162.019 172.386 162.896 172.458 163.885 172.602C164.89 172.745 165.839 173.048 166.732 173.511C166.653 172.538 166.501 171.549 166.278 170.544C166.07 169.523 165.759 168.598 165.345 167.769C164.93 166.939 164.388 166.269 163.718 165.759C163.064 165.232 162.242 164.969 161.253 164.969C160.408 164.969 159.587 165.145 158.789 165.496C157.992 165.847 157.242 166.349 156.54 167.003C155.854 167.657 155.232 168.454 154.674 169.396C154.116 170.337 153.645 171.397 153.262 172.578L151.252 160.854L154.291 165.52C155.041 164.594 155.798 163.861 156.564 163.318C157.33 162.76 158.087 162.337 158.837 162.05C159.603 161.747 160.336 161.548 161.038 161.452C161.756 161.356 162.442 161.309 163.096 161.309C164.324 161.372 165.456 161.628 166.493 162.074C167.546 162.505 168.455 163.135 169.221 163.964C169.986 164.778 170.584 165.783 171.015 166.979C171.462 168.175 171.685 169.547 171.685 171.094ZM166.732 178.75C166.764 178.304 166.788 177.873 166.804 177.458C166.82 177.044 166.828 176.637 166.828 176.238V175.951C166.254 175.728 165.672 175.56 165.082 175.449C164.507 175.321 163.973 175.233 163.479 175.186C162.984 175.122 162.561 175.09 162.21 175.09C161.875 175.074 161.652 175.066 161.541 175.066C160.631 175.098 159.842 175.265 159.172 175.568C158.502 175.871 157.944 176.254 157.497 176.717C157.066 177.163 156.739 177.666 156.516 178.224C156.309 178.782 156.205 179.333 156.205 179.875C156.205 181.103 156.5 182.036 157.09 182.674C157.696 183.296 158.574 183.607 159.722 183.607C160.488 183.607 161.214 183.472 161.899 183.201C162.585 182.93 163.223 182.571 163.813 182.124C164.42 181.661 164.962 181.143 165.44 180.569C165.935 179.979 166.366 179.373 166.732 178.75ZM177.451 175.521C177.451 174.021 177.603 172.53 177.906 171.046C178.225 169.547 178.568 168.175 178.935 166.931L174.795 167.194L186.471 154.442C185.546 157.361 184.796 159.993 184.222 162.337L193.529 163.127L192.309 165.998L183.289 166.644C183.066 167.808 182.89 168.845 182.763 169.754C182.651 170.648 182.555 171.405 182.476 172.027C182.396 172.761 182.34 173.399 182.308 173.941C182.308 175.536 182.404 176.972 182.595 178.248C182.787 179.524 183.082 180.617 183.48 181.526C183.895 182.419 184.414 183.113 185.036 183.607C185.674 184.086 186.431 184.325 187.309 184.325C188.122 184.325 188.8 184.166 189.342 183.847C189.901 183.512 190.347 183.089 190.682 182.579C191.017 182.052 191.256 181.47 191.4 180.832C191.543 180.178 191.615 179.532 191.615 178.894C191.615 178.304 191.567 177.73 191.472 177.171C192.158 177.522 192.676 178.089 193.027 178.87C193.394 179.636 193.577 180.473 193.577 181.382C193.577 182.323 193.418 183.153 193.099 183.871C192.796 184.588 192.373 185.194 191.831 185.689C191.288 186.167 190.65 186.534 189.917 186.79C189.183 187.045 188.393 187.172 187.548 187.172C187.037 187.172 186.431 187.117 185.729 187.005C185.044 186.893 184.326 186.686 183.576 186.383C182.826 186.096 182.085 185.681 181.351 185.139C180.617 184.596 179.963 183.895 179.389 183.033C178.815 182.172 178.344 181.127 177.978 179.899C177.627 178.655 177.451 177.195 177.451 175.521ZM194.582 186.239L198.338 183.296L197.525 166.788L193.099 163.893L203.387 162.146L201.544 181.334L206.688 184.541L194.582 186.239ZM203.65 156.356C203.65 156.834 203.554 157.289 203.363 157.72C203.171 158.134 202.908 158.509 202.573 158.844C202.238 159.163 201.855 159.418 201.425 159.61C200.994 159.785 200.54 159.873 200.061 159.873C199.551 159.873 199.072 159.785 198.625 159.61C198.195 159.418 197.82 159.163 197.501 158.844C197.182 158.509 196.927 158.134 196.735 157.72C196.544 157.289 196.448 156.834 196.448 156.356C196.448 155.861 196.544 155.407 196.735 154.992C196.927 154.562 197.182 154.187 197.501 153.868C197.82 153.549 198.195 153.301 198.625 153.126C199.072 152.935 199.551 152.839 200.061 152.839C200.54 152.839 200.994 152.935 201.425 153.126C201.855 153.301 202.238 153.549 202.573 153.868C202.908 154.187 203.171 154.562 203.363 154.992C203.554 155.407 203.65 155.861 203.65 156.356ZM207.215 173.989C207.215 172.203 207.494 170.552 208.052 169.037C208.626 167.505 209.416 166.181 210.421 165.065C211.442 163.948 212.646 163.079 214.034 162.457C215.437 161.819 216.969 161.5 218.627 161.5C220.238 161.5 221.714 161.803 223.054 162.409C224.394 162.999 225.558 163.837 226.547 164.921C227.536 166.006 228.325 167.306 228.916 168.821C229.506 170.337 229.857 172.011 229.968 173.846C230.08 175.808 229.873 177.586 229.346 179.181C228.836 180.76 228.078 182.108 227.073 183.225C226.068 184.325 224.864 185.179 223.46 185.785C222.073 186.391 220.565 186.694 218.938 186.694C217.375 186.694 215.884 186.415 214.464 185.856C213.061 185.282 211.817 184.453 210.732 183.368C209.663 182.284 208.81 180.96 208.172 179.396C207.534 177.817 207.215 176.015 207.215 173.989ZM213.101 174.396C213.101 175.8 213.3 177.068 213.699 178.2C214.097 179.333 214.632 180.298 215.302 181.095C215.972 181.877 216.745 182.483 217.623 182.914C218.5 183.344 219.425 183.56 220.398 183.56C221.371 183.56 222.28 183.352 223.125 182.938C223.971 182.507 224.705 181.909 225.327 181.143C225.949 180.361 226.435 179.428 226.786 178.344C227.137 177.259 227.312 176.055 227.312 174.731C227.312 173.423 227.137 172.195 226.786 171.046C226.435 169.882 225.941 168.869 225.303 168.008C224.681 167.146 223.939 166.469 223.078 165.974C222.216 165.48 221.275 165.232 220.254 165.232C219.345 165.232 218.46 165.44 217.599 165.854C216.753 166.269 215.996 166.875 215.326 167.673C214.656 168.454 214.113 169.411 213.699 170.544C213.3 171.676 213.101 172.96 213.101 174.396ZM255.159 170.839C255.159 171.75 255.118 172.711 255.037 173.72C254.955 174.729 254.833 175.738 254.67 176.747C254.508 177.756 254.304 178.741 254.06 179.701C253.832 180.661 253.564 181.54 253.254 182.338L258.064 183.9L245.344 186.391L249.666 183.144C250.007 181.89 250.235 180.686 250.349 179.53C250.479 178.375 250.544 177.284 250.544 176.259C250.544 175.64 250.52 174.94 250.471 174.159C250.439 173.362 250.349 172.556 250.203 171.742C250.072 170.928 249.877 170.131 249.617 169.35C249.373 168.568 249.047 167.877 248.64 167.274C248.233 166.656 247.729 166.168 247.126 165.81C246.541 165.435 245.833 165.248 245.002 165.248C244.042 165.248 243.066 165.565 242.073 166.2C241.08 166.835 240.16 167.771 239.314 169.008V182.509L243.342 185.39L231.257 186.244L234.456 182.704L236.165 164.955L230.964 162.392L239.314 161.562V165.248C239.786 164.597 240.307 163.987 240.876 163.417C241.446 162.847 242.048 162.359 242.683 161.952C243.318 161.529 243.977 161.203 244.661 160.976C245.361 160.731 246.077 160.609 246.809 160.609C248.225 160.609 249.454 160.87 250.496 161.391C251.537 161.911 252.4 162.636 253.083 163.563C253.783 164.475 254.304 165.557 254.646 166.811C254.988 168.048 255.159 169.39 255.159 170.839Z" fill="white"/>
</g>
<path d="M32 40C32 29.5066 40.5066 21 51 21H245C255.493 21 264 29.5066 264 40V191C264 201.493 255.493 210 245 210H51C40.5066 210 32 201.493 32 191V40Z" fill="white" fill-opacity="0.65"/>
<path d="M135.241 239.982C135.055 241.954 134.327 243.495 133.058 244.604C131.788 245.704 130.1 246.254 127.992 246.254C126.52 246.254 125.22 245.907 124.095 245.213C122.978 244.51 122.114 243.516 121.505 242.229C120.896 240.943 120.578 239.449 120.553 237.748V236.021C120.553 234.278 120.862 232.742 121.479 231.413C122.097 230.084 122.982 229.06 124.133 228.341C125.292 227.621 126.63 227.262 128.145 227.262C130.184 227.262 131.826 227.816 133.07 228.925C134.314 230.034 135.038 231.599 135.241 233.622H132.042C131.89 232.293 131.5 231.337 130.874 230.753C130.256 230.16 129.346 229.864 128.145 229.864C126.748 229.864 125.673 230.376 124.92 231.4C124.175 232.416 123.794 233.91 123.777 235.882V237.52C123.777 239.517 124.133 241.04 124.844 242.09C125.563 243.139 126.613 243.664 127.992 243.664C129.253 243.664 130.201 243.381 130.836 242.813C131.471 242.246 131.873 241.303 132.042 239.982H135.241ZM141.106 246H138.021V226.5H141.106V246ZM147.759 246H144.674V232.264H147.759V246ZM144.483 228.696C144.483 228.222 144.632 227.829 144.928 227.516C145.232 227.202 145.664 227.046 146.223 227.046C146.781 227.046 147.213 227.202 147.518 227.516C147.822 227.829 147.975 228.222 147.975 228.696C147.975 229.162 147.822 229.551 147.518 229.864C147.213 230.169 146.781 230.321 146.223 230.321C145.664 230.321 145.232 230.169 144.928 229.864C144.632 229.551 144.483 229.162 144.483 228.696ZM156.772 243.791C157.543 243.791 158.182 243.567 158.689 243.118C159.197 242.67 159.468 242.115 159.502 241.455H162.409C162.375 242.31 162.109 243.11 161.609 243.854C161.11 244.591 160.433 245.175 159.578 245.606C158.723 246.038 157.801 246.254 156.811 246.254C154.889 246.254 153.366 245.632 152.24 244.388C151.115 243.144 150.552 241.425 150.552 239.233V238.916C150.552 236.826 151.11 235.154 152.228 233.901C153.345 232.64 154.868 232.01 156.798 232.01C158.431 232.01 159.76 232.488 160.784 233.444C161.817 234.392 162.358 235.641 162.409 237.189H159.502C159.468 236.402 159.197 235.755 158.689 235.247C158.19 234.739 157.551 234.485 156.772 234.485C155.774 234.485 155.004 234.849 154.462 235.577C153.92 236.297 153.645 237.393 153.637 238.865V239.36C153.637 240.85 153.903 241.963 154.437 242.699C154.978 243.427 155.757 243.791 156.772 243.791ZM169.201 240.109L167.83 241.519V246H164.745V226.5H167.83V237.748L168.795 236.542L172.591 232.264H176.298L171.194 237.989L176.844 246H173.276L169.201 240.109Z" fill="white"/>
<defs>
<filter id="filter0_d" x="0" y="0" width="296" height="296" filterUnits="userSpaceOnUse" color-interpolation-filters="sRGB">
<feFlood flood-opacity="0" result="BackgroundImageFix"/>
<feColorMatrix in="SourceAlpha" type="matrix" values="0 0 0 0 0 0 0 0 0 0 0 0 0 0 0 0 0 0 127 0"/>
<feOffset dy="11"/>
<feGaussianBlur stdDeviation="10"/>
<feColorMatrix type="matrix" values="0 0 0 0 0 0 0 0 0 0 0 0 0 0 0 0 0 0 0.25 0"/>
<feBlend mode="normal" in2="BackgroundImageFix" result="effect1_dropShadow"/>
<feBlend mode="normal" in="SourceGraphic" in2="effect1_dropShadow" result="shape"/>
</filter>
</defs>
</svg>
