<svg width="30" height="38" viewBox="0 0 30 38" fill="none" xmlns="http://www.w3.org/2000/svg">
<path d="M1 33.875C1 32.7147 1.46094 31.6019 2.28141 30.7814C3.10188 29.9609 4.21468 29.5 5.375 29.5H29" fill="white"/>
<path d="M1 33.875C1 32.7147 1.46094 31.6019 2.28141 30.7814C3.10188 29.9609 4.21468 29.5 5.375 29.5H29" stroke="white" stroke-width="2" stroke-linecap="round" stroke-linejoin="round"/>
<path d="M5.375 1.5H29V36.5H5.375C4.21468 36.5 3.10188 36.0391 2.28141 35.2186C1.46094 34.3981 1 33.2853 1 32.125V5.875C1 4.71468 1.46094 3.60188 2.28141 2.78141C3.10188 1.96094 4.21468 1.5 5.375 1.5V1.5Z" fill="white" stroke="white" stroke-width="2" stroke-linecap="round" stroke-linejoin="round"/>
</svg>
