<svg width="234" height="255" viewBox="0 0 234 255" fill="none" xmlns="http://www.w3.org/2000/svg">
<path d="M234 60.7323V63.75H156V0H159.692C163.571 0 167.291 1.25956 170.034 3.50077L229.717 52.28C232.459 54.5219 234 57.5622 234 60.7323ZM151.125 79.6875C143.081 79.6875 136.5 74.3086 136.5 67.7344V0H14.625C6.54773 0 0 5.35151 0 11.9531V243.047C0 249.648 6.54773 255 14.625 255H219.375C227.452 255 234 249.648 234 243.047V79.6875H151.125ZM75.0787 199.47C74.7831 199.728 74.4283 199.935 74.0346 200.081C73.6409 200.227 73.2159 200.308 72.784 200.319C72.3521 200.33 71.9217 200.272 71.5173 200.147C71.1129 200.023 70.7425 199.834 70.4273 199.593L30.8996 169.306C30.5713 169.054 30.3096 168.75 30.1307 168.413C29.9518 168.075 29.8595 167.711 29.8595 167.344C29.8595 166.976 29.9518 166.612 30.1307 166.274C30.3096 165.937 30.5713 165.633 30.8996 165.381L70.4273 135.094C70.7425 134.853 71.1129 134.664 71.5173 134.54C71.9217 134.415 72.3521 134.357 72.784 134.368C73.2159 134.379 73.6409 134.46 74.0346 134.606C74.4283 134.752 74.7831 134.959 75.0787 135.217L87.0096 145.618C87.3111 145.881 87.5449 146.191 87.6972 146.529C87.8494 146.867 87.9169 147.227 87.8958 147.587C87.8747 147.947 87.7652 148.299 87.5741 148.624C87.3829 148.949 87.1139 149.239 86.7829 149.477L61.943 167.344L86.7829 185.211C87.1139 185.449 87.3829 185.739 87.5741 186.063C87.7652 186.388 87.8747 186.741 87.8958 187.101C87.9169 187.461 87.8494 187.82 87.6972 188.158C87.5449 188.497 87.3111 188.806 87.0096 189.069L75.0787 199.47V199.47ZM106.337 224.611L89.6074 220.642C88.7693 220.443 88.0622 219.98 87.6416 219.355C87.2209 218.73 87.1212 217.994 87.3643 217.309L124.804 111.909C125.048 111.224 125.614 110.646 126.379 110.302C127.144 109.959 128.044 109.877 128.882 110.076L145.611 114.045C146.026 114.144 146.413 114.308 146.75 114.529C147.088 114.75 147.368 115.023 147.577 115.332C147.785 115.642 147.916 115.982 147.964 116.333C148.011 116.684 147.974 117.039 147.853 117.378L110.413 222.778C110.293 223.117 110.092 223.434 109.822 223.709C109.552 223.985 109.218 224.215 108.84 224.385C108.461 224.555 108.045 224.663 107.616 224.702C107.186 224.74 106.752 224.71 106.337 224.611V224.611ZM204.319 169.306L164.791 199.593C164.476 199.834 164.106 200.023 163.701 200.147C163.297 200.272 162.867 200.33 162.435 200.319C162.003 200.308 161.578 200.227 161.184 200.081C160.79 199.935 160.436 199.728 160.14 199.47L148.209 189.069C147.907 188.806 147.673 188.496 147.521 188.158C147.369 187.82 147.301 187.46 147.322 187.1C147.343 186.74 147.453 186.388 147.644 186.063C147.835 185.738 148.104 185.448 148.435 185.21L173.276 167.344L148.436 149.477C148.105 149.239 147.836 148.949 147.645 148.624C147.454 148.299 147.344 147.947 147.323 147.587C147.302 147.227 147.369 146.867 147.522 146.529C147.674 146.191 147.908 145.881 148.209 145.618L160.141 135.217C160.436 134.959 160.791 134.752 161.185 134.606C161.578 134.46 162.003 134.379 162.435 134.368C162.867 134.357 163.298 134.415 163.702 134.54C164.106 134.664 164.477 134.853 164.792 135.094L204.32 165.381C204.648 165.633 204.91 165.937 205.088 166.274C205.267 166.612 205.36 166.976 205.36 167.344C205.359 167.711 205.267 168.075 205.088 168.413C204.909 168.75 204.647 169.054 204.319 169.306V169.306Z" fill="white"/>
</svg>
