<svg width="296" height="296" viewBox="0 0 296 296" fill="none" xmlns="http://www.w3.org/2000/svg">
<g filter="url(#filter0_d)">
<rect x="20" y="9" width="256" height="256" rx="10" fill="#C4C4C4"/>
<path d="M72 33L85.7237 160.221L147.5 177L209.276 160.221L223 33H72ZM195.12 58.7143L193.233 73.9179L147.893 89.7643L147.775 89.7964H191.62L186.587 136.918L147.972 146.143L109.121 136.757L106.604 113.004H125.833L127.091 125.314L147.775 129.589L169.285 124.639L170.74 104.839L105.346 104.679V104.646L105.267 104.679L103.852 89.7964L147.933 74.7857L150.489 73.9179H102.161L99.8799 58.7143H195.12Z" fill="white"/>
<path d="M117.971 227.902C119.748 227.902 121.223 227.385 122.395 226.35C123.566 225.314 124.191 224.035 124.27 222.512H130.979C130.9 224.484 130.285 226.33 129.133 228.049C127.98 229.748 126.418 231.096 124.445 232.092C122.473 233.088 120.344 233.586 118.059 233.586C113.625 233.586 110.109 232.15 107.512 229.279C104.914 226.408 103.615 222.443 103.615 217.385V216.652C103.615 211.828 104.904 207.971 107.482 205.08C110.061 202.17 113.576 200.715 118.029 200.715C121.799 200.715 124.865 201.818 127.229 204.025C129.611 206.213 130.861 209.094 130.979 212.668H124.27C124.191 210.852 123.566 209.357 122.395 208.186C121.242 207.014 119.768 206.428 117.971 206.428C115.666 206.428 113.889 207.268 112.639 208.947C111.389 210.607 110.754 213.137 110.734 216.535V217.678C110.734 221.115 111.35 223.684 112.58 225.383C113.83 227.062 115.627 227.902 117.971 227.902ZM154.123 224.387C154.123 223.117 153.596 222.15 152.541 221.486C151.506 220.822 149.777 220.236 147.355 219.729C144.934 219.221 142.912 218.576 141.291 217.795C137.736 216.076 135.959 213.586 135.959 210.324C135.959 207.59 137.111 205.305 139.416 203.469C141.721 201.633 144.65 200.715 148.205 200.715C151.994 200.715 155.051 201.652 157.375 203.527C159.719 205.402 160.891 207.834 160.891 210.822H153.771C153.771 209.455 153.264 208.322 152.248 207.424C151.232 206.506 149.885 206.047 148.205 206.047C146.643 206.047 145.363 206.408 144.367 207.131C143.391 207.854 142.902 208.82 142.902 210.031C142.902 211.125 143.361 211.975 144.279 212.58C145.197 213.186 147.053 213.801 149.846 214.426C152.639 215.031 154.826 215.764 156.408 216.623C158.01 217.463 159.191 218.479 159.953 219.67C160.734 220.861 161.125 222.307 161.125 224.006C161.125 226.857 159.943 229.172 157.58 230.949C155.217 232.707 152.121 233.586 148.293 233.586C145.695 233.586 143.381 233.117 141.35 232.18C139.318 231.242 137.736 229.953 136.604 228.312C135.471 226.672 134.904 224.904 134.904 223.01H141.818C141.916 224.689 142.551 225.988 143.723 226.906C144.895 227.805 146.447 228.254 148.381 228.254C150.256 228.254 151.682 227.902 152.658 227.199C153.635 226.477 154.123 225.539 154.123 224.387ZM185.119 224.387C185.119 223.117 184.592 222.15 183.537 221.486C182.502 220.822 180.773 220.236 178.352 219.729C175.93 219.221 173.908 218.576 172.287 217.795C168.732 216.076 166.955 213.586 166.955 210.324C166.955 207.59 168.107 205.305 170.412 203.469C172.717 201.633 175.646 200.715 179.201 200.715C182.99 200.715 186.047 201.652 188.371 203.527C190.715 205.402 191.887 207.834 191.887 210.822H184.768C184.768 209.455 184.26 208.322 183.244 207.424C182.229 206.506 180.881 206.047 179.201 206.047C177.639 206.047 176.359 206.408 175.363 207.131C174.387 207.854 173.898 208.82 173.898 210.031C173.898 211.125 174.357 211.975 175.275 212.58C176.193 213.186 178.049 213.801 180.842 214.426C183.635 215.031 185.822 215.764 187.404 216.623C189.006 217.463 190.188 218.479 190.949 219.67C191.73 220.861 192.121 222.307 192.121 224.006C192.121 226.857 190.939 229.172 188.576 230.949C186.213 232.707 183.117 233.586 179.289 233.586C176.691 233.586 174.377 233.117 172.346 232.18C170.314 231.242 168.732 229.953 167.6 228.312C166.467 226.672 165.9 224.904 165.9 223.01H172.814C172.912 224.689 173.547 225.988 174.719 226.906C175.891 227.805 177.443 228.254 179.377 228.254C181.252 228.254 182.678 227.902 183.654 227.199C184.631 226.477 185.119 225.539 185.119 224.387Z" fill="white"/>
</g>
<defs>
<filter id="filter0_d" x="0" y="0" width="296" height="296" filterUnits="userSpaceOnUse" color-interpolation-filters="sRGB">
<feFlood flood-opacity="0" result="BackgroundImageFix"/>
<feColorMatrix in="SourceAlpha" type="matrix" values="0 0 0 0 0 0 0 0 0 0 0 0 0 0 0 0 0 0 127 0"/>
<feOffset dy="11"/>
<feGaussianBlur stdDeviation="10"/>
<feColorMatrix type="matrix" values="0 0 0 0 0 0 0 0 0 0 0 0 0 0 0 0 0 0 0.25 0"/>
<feBlend mode="normal" in2="BackgroundImageFix" result="effect1_dropShadow"/>
<feBlend mode="normal" in="SourceGraphic" in2="effect1_dropShadow" result="shape"/>
</filter>
</defs>
</svg>
