<svg width="296" height="296" viewBox="0 0 296 296" fill="none" xmlns="http://www.w3.org/2000/svg">
<g filter="url(#filter0_d)">
<rect x="20" y="9" width="256" height="256" rx="10" fill="#C4C4C4"/>
<path d="M119.385 70.1147L92.4204 71.1914L98.4019 65.0664L100.077 43.0308L92.875 39.4897L118.5 37.6714L118.93 48.8926L114.48 40.9253L103.546 42.6719L103.905 53.9888L106.393 53.6538L111.346 47.0981L111.681 62.1714L107.374 55.9985L103.953 56.501L104.24 66.3823L114.958 67.3633L118.978 57.3384L119.385 70.1147ZM121.442 71.2393L124.577 67.7222L126.204 51.5005L121.155 47.8638L129.29 48.4141V50.8545C129.896 50.041 130.526 49.411 131.18 48.9644C131.85 48.5177 132.464 48.1908 133.022 47.9834C133.676 47.7441 134.322 47.6086 134.96 47.5767C136.093 47.5767 137.122 47.8079 138.047 48.2705C138.972 48.7331 139.706 49.3711 140.248 50.1846C140.918 49.387 141.684 48.757 142.545 48.2944C143.406 47.8159 144.339 47.5767 145.344 47.5767C146.253 47.5767 147.099 47.784 147.88 48.1987C148.662 48.6134 149.332 49.1956 149.89 49.9453C150.464 50.695 150.911 51.6121 151.23 52.6968C151.565 53.7655 151.732 54.9538 151.732 56.2617C151.732 57.2028 151.669 58.1838 151.541 59.2046C151.429 60.2254 151.27 61.2383 151.062 62.2432C150.871 63.248 150.632 64.229 150.345 65.186C150.058 66.1271 149.747 67.0044 149.412 67.8179L152.809 69.3252L140.942 71.5503L146.182 67.3633C146.437 65.6406 146.596 64.0695 146.66 62.6499C146.74 61.2144 146.78 59.9941 146.78 58.9893C146.78 56.4212 146.469 54.555 145.847 53.3906C145.241 52.2262 144.371 51.644 143.239 51.644C142.553 51.644 141.867 51.8913 141.181 52.3857C141.277 52.7686 141.325 53.1753 141.325 53.606C141.325 54.5789 141.245 55.5838 141.085 56.6206C140.942 57.6574 140.75 58.6782 140.511 59.6831C140.272 60.688 140.001 61.661 139.698 62.6021C139.395 63.5431 139.092 64.3965 138.789 65.1621L142.162 67.8179H132.52L135.75 65.21C135.941 63.7266 136.077 62.2113 136.157 60.6641C136.236 59.1009 136.276 57.6335 136.276 56.2617C136.276 54.6348 136.085 53.3587 135.702 52.4336C135.335 51.5085 134.665 51.0459 133.692 51.0459C133.198 51.0459 132.735 51.1416 132.305 51.333C131.89 51.5244 131.499 51.7796 131.132 52.0986C130.781 52.4176 130.446 52.7845 130.127 53.1992C129.824 53.6139 129.545 54.0446 129.29 54.4912V67.5308L133.31 70.4019L121.442 71.2393ZM176.185 56.0942C176.185 56.9396 176.137 57.8488 176.041 58.8218C175.945 59.7948 175.802 60.7837 175.61 61.7886C175.435 62.7935 175.22 63.7824 174.964 64.7554C174.725 65.7124 174.462 66.5977 174.175 67.4111L179.271 71L170.251 70.6172L170.801 67.6743C169.844 68.8706 168.736 69.7878 167.476 70.4258C166.231 71.0479 164.788 71.4227 163.145 71.5503C161.805 71.646 160.633 71.5503 159.628 71.2632C158.639 70.992 157.81 70.5693 157.14 69.9951C156.486 69.4049 155.999 68.6872 155.68 67.8418C155.361 66.9805 155.202 66.0234 155.202 64.9707C155.202 63.9977 155.441 63.0566 155.919 62.1475C156.398 61.2223 157.084 60.4089 157.977 59.707C158.886 59.0052 159.995 58.4469 161.303 58.0322C162.611 57.6016 164.094 57.3862 165.753 57.3862C166.519 57.3862 167.396 57.458 168.385 57.6016C169.39 57.7451 170.339 58.0482 171.232 58.5107C171.152 57.5378 171.001 56.5488 170.777 55.5439C170.57 54.5231 170.259 53.598 169.844 52.7686C169.43 51.9391 168.887 51.2692 168.217 50.7588C167.563 50.2324 166.742 49.9692 165.753 49.9692C164.908 49.9692 164.086 50.1447 163.289 50.4956C162.491 50.8465 161.741 51.349 161.04 52.0029C160.354 52.6569 159.732 53.4544 159.173 54.3955C158.615 55.3366 158.145 56.3973 157.762 57.5776L155.752 45.854L158.791 50.5195C159.54 49.5944 160.298 48.8607 161.063 48.3184C161.829 47.7601 162.587 47.3374 163.336 47.0503C164.102 46.7472 164.836 46.5479 165.538 46.4521C166.255 46.3564 166.941 46.3086 167.595 46.3086C168.823 46.3724 169.956 46.6276 170.993 47.0742C172.045 47.5049 172.955 48.1349 173.72 48.9644C174.486 49.7778 175.084 50.7827 175.515 51.979C175.961 53.1753 176.185 54.547 176.185 56.0942ZM171.232 63.7505C171.264 63.3039 171.288 62.8732 171.304 62.4585C171.32 62.0438 171.328 61.637 171.328 61.2383V60.9512C170.753 60.7279 170.171 60.5604 169.581 60.4487C169.007 60.3211 168.472 60.2334 167.978 60.1855C167.484 60.1217 167.061 60.0898 166.71 60.0898C166.375 60.0739 166.152 60.0659 166.04 60.0659C165.131 60.0978 164.341 60.2653 163.671 60.5684C163.001 60.8714 162.443 61.2542 161.997 61.7168C161.566 62.1634 161.239 62.6659 161.016 63.2241C160.808 63.7824 160.705 64.3327 160.705 64.875C160.705 66.1032 161 67.0363 161.59 67.6743C162.196 68.2964 163.073 68.6074 164.222 68.6074C164.987 68.6074 165.713 68.4718 166.399 68.2007C167.085 67.9295 167.723 67.5706 168.313 67.124C168.919 66.6615 169.461 66.1431 169.94 65.5688C170.434 64.9787 170.865 64.3726 171.232 63.7505ZM179.797 71.2393L183.554 68.2964L182.74 51.7876L178.314 48.8926L188.602 47.146L186.76 66.3345L191.904 69.5405L179.797 71.2393ZM188.865 41.356C188.865 41.8345 188.77 42.2891 188.578 42.7197C188.387 43.1344 188.124 43.5093 187.789 43.8442C187.454 44.1632 187.071 44.4185 186.64 44.6099C186.209 44.7853 185.755 44.873 185.276 44.873C184.766 44.873 184.287 44.7853 183.841 44.6099C183.41 44.4185 183.035 44.1632 182.716 43.8442C182.397 43.5093 182.142 43.1344 181.951 42.7197C181.759 42.2891 181.664 41.8345 181.664 41.356C181.664 40.8615 181.759 40.4069 181.951 39.9922C182.142 39.5615 182.397 39.1867 182.716 38.8677C183.035 38.5487 183.41 38.3014 183.841 38.126C184.287 37.9346 184.766 37.8389 185.276 37.8389C185.755 37.8389 186.209 37.9346 186.64 38.126C187.071 38.3014 187.454 38.5487 187.789 38.8677C188.124 39.1867 188.387 39.5615 188.578 39.9922C188.77 40.4069 188.865 40.8615 188.865 41.356ZM198.125 68.0093L202.91 69.9233L190.923 71.0957L195.229 67.7222L194.488 41.8823L188.961 39.4897L201.067 37.8867L198.125 68.0093ZM75.5527 95.4609L73.6865 109.481L70.9351 99.2412L63.5898 100.079L64.5708 123.98L70.5044 127.019L51.3877 128.837L58.3501 123.789L59.5703 100.318L51.9858 100.031L49.043 108.74L48.1099 95.8677L75.5527 95.4609ZM82.1323 119.219C82.3397 120.112 82.6188 120.99 82.9697 121.851C83.3206 122.696 83.7513 123.454 84.2617 124.124C84.7721 124.794 85.3623 125.336 86.0322 125.751C86.7021 126.166 87.4598 126.373 88.3052 126.373C89.4217 126.373 90.3947 126.142 91.2241 125.679C92.0535 125.217 92.7314 124.634 93.2578 123.933C93.7842 123.215 94.151 122.433 94.3584 121.588C94.5658 120.727 94.6056 119.905 94.478 119.124C94.9246 119.299 95.2915 119.53 95.5786 119.817C95.8817 120.104 96.113 120.424 96.2725 120.774C96.4479 121.109 96.5675 121.46 96.6313 121.827C96.6951 122.178 96.7271 122.521 96.7271 122.856C96.7271 123.622 96.5037 124.363 96.0571 125.081C95.6105 125.783 94.9805 126.413 94.167 126.971C93.3695 127.514 92.4204 127.952 91.3198 128.287C90.2192 128.622 89.015 128.79 87.707 128.79C85.9525 128.79 84.3813 128.447 82.9937 127.761C81.6219 127.075 80.4575 126.15 79.5005 124.985C78.5435 123.805 77.8097 122.425 77.2993 120.846C76.7889 119.267 76.5337 117.584 76.5337 115.798C76.5337 113.979 76.7889 112.305 77.2993 110.773C77.8097 109.226 78.5594 107.91 79.5483 106.826C80.5532 105.741 81.7814 104.92 83.2329 104.361C84.6844 103.803 86.3592 103.58 88.2573 103.691C89.5653 103.787 90.7695 104.162 91.8701 104.816C92.9707 105.47 93.9277 106.315 94.7412 107.352C95.5706 108.373 96.2326 109.545 96.7271 110.869C97.2375 112.193 97.5485 113.573 97.6602 115.008L82.1323 119.219ZM81.6777 115.367C81.6777 115.59 81.6777 115.814 81.6777 116.037C81.6777 116.244 81.6937 116.46 81.7256 116.683L92.229 112.855C91.8781 111.707 91.4793 110.726 91.0327 109.912C90.6021 109.083 90.1475 108.405 89.6689 107.878C89.1904 107.352 88.7039 106.969 88.2095 106.73C87.731 106.475 87.2684 106.347 86.8218 106.347C86.1519 106.347 85.5617 106.475 85.0513 106.73C84.5409 106.985 84.0942 107.336 83.7114 107.783C83.3446 108.213 83.0256 108.724 82.7544 109.314C82.4992 109.904 82.2918 110.534 82.1323 111.204C81.9728 111.874 81.8532 112.568 81.7734 113.286C81.7096 113.987 81.6777 114.681 81.6777 115.367ZM98.7129 128.239L101.847 124.722L103.474 108.5L98.4258 104.864L106.561 105.414V107.854C107.167 107.041 107.797 106.411 108.451 105.964C109.121 105.518 109.735 105.191 110.293 104.983C110.947 104.744 111.593 104.609 112.231 104.577C113.363 104.577 114.392 104.808 115.317 105.271C116.243 105.733 116.976 106.371 117.519 107.185C118.188 106.387 118.954 105.757 119.815 105.294C120.677 104.816 121.61 104.577 122.615 104.577C123.524 104.577 124.369 104.784 125.151 105.199C125.932 105.613 126.602 106.196 127.161 106.945C127.735 107.695 128.181 108.612 128.5 109.697C128.835 110.765 129.003 111.954 129.003 113.262C129.003 114.203 128.939 115.184 128.812 116.205C128.7 117.225 128.54 118.238 128.333 119.243C128.142 120.248 127.902 121.229 127.615 122.186C127.328 123.127 127.017 124.004 126.682 124.818L130.08 126.325L118.212 128.55L123.452 124.363C123.707 122.641 123.867 121.069 123.931 119.65C124.01 118.214 124.05 116.994 124.05 115.989C124.05 113.421 123.739 111.555 123.117 110.391C122.511 109.226 121.642 108.644 120.509 108.644C119.823 108.644 119.138 108.891 118.452 109.386C118.547 109.769 118.595 110.175 118.595 110.606C118.595 111.579 118.515 112.584 118.356 113.621C118.212 114.657 118.021 115.678 117.782 116.683C117.542 117.688 117.271 118.661 116.968 119.602C116.665 120.543 116.362 121.396 116.059 122.162L119.433 124.818H109.791L113.021 122.21C113.212 120.727 113.347 119.211 113.427 117.664C113.507 116.101 113.547 114.633 113.547 113.262C113.547 111.635 113.355 110.359 112.973 109.434C112.606 108.508 111.936 108.046 110.963 108.046C110.468 108.046 110.006 108.142 109.575 108.333C109.16 108.524 108.77 108.78 108.403 109.099C108.052 109.418 107.717 109.785 107.398 110.199C107.095 110.614 106.816 111.045 106.561 111.491V124.531L110.58 127.402L98.7129 128.239ZM139.985 107.089C140.352 106.642 140.75 106.236 141.181 105.869C141.612 105.486 142.082 105.159 142.593 104.888C143.103 104.601 143.646 104.377 144.22 104.218C144.81 104.058 145.44 103.979 146.11 103.979C147.338 104.026 148.502 104.313 149.603 104.84C150.72 105.366 151.693 106.124 152.522 107.113C153.367 108.086 154.037 109.29 154.532 110.726C155.026 112.145 155.273 113.772 155.273 115.606C155.273 117.84 155.01 119.793 154.484 121.468C153.958 123.143 153.24 124.539 152.331 125.655C151.421 126.756 150.353 127.585 149.125 128.144C147.912 128.702 146.612 128.981 145.225 128.981C144.012 128.981 142.888 128.774 141.851 128.359C140.814 127.944 139.913 127.37 139.147 126.636L138.908 132.02L143.693 134.604L131.946 136.613L135.559 133L134.578 107.376L130.223 105.653L140.128 103.979L139.985 107.089ZM145.368 107.017C145.145 107.017 144.826 107.057 144.411 107.137C143.996 107.216 143.526 107.4 143 107.687C142.489 107.974 141.947 108.389 141.373 108.931C140.814 109.473 140.28 110.207 139.77 111.132L139.291 123.047C139.801 123.845 140.424 124.507 141.157 125.033C141.907 125.544 142.736 125.799 143.646 125.799C144.73 125.799 145.663 125.528 146.445 124.985C147.226 124.443 147.864 123.693 148.359 122.736C148.869 121.763 149.236 120.623 149.459 119.315C149.699 118.007 149.818 116.587 149.818 115.056C149.818 113.94 149.723 112.895 149.531 111.922C149.34 110.933 149.061 110.08 148.694 109.362C148.327 108.628 147.864 108.054 147.306 107.639C146.748 107.224 146.102 107.017 145.368 107.017ZM163.528 125.009L168.313 126.923L156.326 128.096L160.633 124.722L159.891 98.8823L154.364 96.4897L166.471 94.8867L163.528 125.009ZM190.588 113.094C190.588 113.94 190.54 114.849 190.444 115.822C190.349 116.795 190.205 117.784 190.014 118.789C189.838 119.793 189.623 120.782 189.368 121.755C189.128 122.712 188.865 123.598 188.578 124.411L193.674 128L184.654 127.617L185.205 124.674C184.248 125.871 183.139 126.788 181.879 127.426C180.635 128.048 179.191 128.423 177.548 128.55C176.208 128.646 175.036 128.55 174.031 128.263C173.042 127.992 172.213 127.569 171.543 126.995C170.889 126.405 170.403 125.687 170.083 124.842C169.764 123.98 169.605 123.023 169.605 121.971C169.605 120.998 169.844 120.057 170.323 119.147C170.801 118.222 171.487 117.409 172.38 116.707C173.29 116.005 174.398 115.447 175.706 115.032C177.014 114.602 178.497 114.386 180.156 114.386C180.922 114.386 181.799 114.458 182.788 114.602C183.793 114.745 184.742 115.048 185.635 115.511C185.556 114.538 185.404 113.549 185.181 112.544C184.973 111.523 184.662 110.598 184.248 109.769C183.833 108.939 183.291 108.269 182.621 107.759C181.967 107.232 181.145 106.969 180.156 106.969C179.311 106.969 178.489 107.145 177.692 107.496C176.894 107.847 176.145 108.349 175.443 109.003C174.757 109.657 174.135 110.454 173.577 111.396C173.018 112.337 172.548 113.397 172.165 114.578L170.155 102.854L173.194 107.52C173.944 106.594 174.701 105.861 175.467 105.318C176.232 104.76 176.99 104.337 177.74 104.05C178.505 103.747 179.239 103.548 179.941 103.452C180.659 103.356 181.345 103.309 181.999 103.309C183.227 103.372 184.359 103.628 185.396 104.074C186.449 104.505 187.358 105.135 188.124 105.964C188.889 106.778 189.487 107.783 189.918 108.979C190.365 110.175 190.588 111.547 190.588 113.094ZM185.635 120.75C185.667 120.304 185.691 119.873 185.707 119.458C185.723 119.044 185.731 118.637 185.731 118.238V117.951C185.157 117.728 184.575 117.56 183.984 117.449C183.41 117.321 182.876 117.233 182.381 117.186C181.887 117.122 181.464 117.09 181.113 117.09C180.778 117.074 180.555 117.066 180.443 117.066C179.534 117.098 178.745 117.265 178.075 117.568C177.405 117.871 176.847 118.254 176.4 118.717C175.969 119.163 175.642 119.666 175.419 120.224C175.212 120.782 175.108 121.333 175.108 121.875C175.108 123.103 175.403 124.036 175.993 124.674C176.599 125.296 177.477 125.607 178.625 125.607C179.391 125.607 180.116 125.472 180.802 125.201C181.488 124.93 182.126 124.571 182.716 124.124C183.322 123.661 183.865 123.143 184.343 122.569C184.838 121.979 185.268 121.373 185.635 120.75ZM196.354 117.521C196.354 116.021 196.506 114.53 196.809 113.046C197.128 111.547 197.471 110.175 197.837 108.931L193.698 109.194L205.374 96.4419C204.449 99.3608 203.699 101.993 203.125 104.337L212.432 105.127L211.212 107.998L202.192 108.644C201.969 109.808 201.793 110.845 201.666 111.754C201.554 112.648 201.458 113.405 201.378 114.027C201.299 114.761 201.243 115.399 201.211 115.941C201.211 117.536 201.307 118.972 201.498 120.248C201.689 121.524 201.985 122.617 202.383 123.526C202.798 124.419 203.316 125.113 203.938 125.607C204.576 126.086 205.334 126.325 206.211 126.325C207.025 126.325 207.703 126.166 208.245 125.847C208.803 125.512 209.25 125.089 209.585 124.579C209.92 124.052 210.159 123.47 210.303 122.832C210.446 122.178 210.518 121.532 210.518 120.894C210.518 120.304 210.47 119.73 210.375 119.171C211.06 119.522 211.579 120.089 211.93 120.87C212.297 121.636 212.48 122.473 212.48 123.382C212.48 124.323 212.32 125.153 212.001 125.871C211.698 126.588 211.276 127.194 210.733 127.689C210.191 128.167 209.553 128.534 208.819 128.79C208.086 129.045 207.296 129.172 206.451 129.172C205.94 129.172 205.334 129.117 204.632 129.005C203.946 128.893 203.229 128.686 202.479 128.383C201.729 128.096 200.988 127.681 200.254 127.139C199.52 126.596 198.866 125.895 198.292 125.033C197.718 124.172 197.247 123.127 196.88 121.899C196.529 120.655 196.354 119.195 196.354 117.521ZM219.61 119.219C219.817 120.112 220.096 120.99 220.447 121.851C220.798 122.696 221.229 123.454 221.739 124.124C222.25 124.794 222.84 125.336 223.51 125.751C224.18 126.166 224.937 126.373 225.783 126.373C226.899 126.373 227.872 126.142 228.702 125.679C229.531 125.217 230.209 124.634 230.735 123.933C231.262 123.215 231.629 122.433 231.836 121.588C232.043 120.727 232.083 119.905 231.956 119.124C232.402 119.299 232.769 119.53 233.056 119.817C233.359 120.104 233.59 120.424 233.75 120.774C233.925 121.109 234.045 121.46 234.109 121.827C234.173 122.178 234.205 122.521 234.205 122.856C234.205 123.622 233.981 124.363 233.535 125.081C233.088 125.783 232.458 126.413 231.645 126.971C230.847 127.514 229.898 127.952 228.797 128.287C227.697 128.622 226.493 128.79 225.185 128.79C223.43 128.79 221.859 128.447 220.471 127.761C219.099 127.075 217.935 126.15 216.978 124.985C216.021 123.805 215.287 122.425 214.777 120.846C214.266 119.267 214.011 117.584 214.011 115.798C214.011 113.979 214.266 112.305 214.777 110.773C215.287 109.226 216.037 107.91 217.026 106.826C218.031 105.741 219.259 104.92 220.71 104.361C222.162 103.803 223.837 103.58 225.735 103.691C227.043 103.787 228.247 104.162 229.348 104.816C230.448 105.47 231.405 106.315 232.219 107.352C233.048 108.373 233.71 109.545 234.205 110.869C234.715 112.193 235.026 113.573 235.138 115.008L219.61 119.219ZM219.155 115.367C219.155 115.59 219.155 115.814 219.155 116.037C219.155 116.244 219.171 116.46 219.203 116.683L229.707 112.855C229.356 111.707 228.957 110.726 228.51 109.912C228.08 109.083 227.625 108.405 227.146 107.878C226.668 107.352 226.181 106.969 225.687 106.73C225.208 106.475 224.746 106.347 224.299 106.347C223.629 106.347 223.039 106.475 222.529 106.73C222.018 106.985 221.572 107.336 221.189 107.783C220.822 108.213 220.503 108.724 220.232 109.314C219.977 109.904 219.769 110.534 219.61 111.204C219.45 111.874 219.331 112.568 219.251 113.286C219.187 113.987 219.155 114.681 219.155 115.367ZM150.728 181.818L155.321 185.239L140.081 184.809L145.081 181.818L147.234 156.672L140.966 153.633L150.728 152.03V181.818Z" fill="white"/>
</g>
<path d="M32 40C32 29.5066 40.5066 21 51 21H245C255.493 21 264 29.5066 264 40V191C264 201.493 255.493 210 245 210H51C40.5066 210 32 201.493 32 191V40Z" fill="white" fill-opacity="0.65"/>
<path d="M135.241 239.982C135.055 241.954 134.327 243.495 133.058 244.604C131.788 245.704 130.1 246.254 127.992 246.254C126.52 246.254 125.22 245.907 124.095 245.213C122.978 244.51 122.114 243.516 121.505 242.229C120.896 240.943 120.578 239.449 120.553 237.748V236.021C120.553 234.278 120.862 232.742 121.479 231.413C122.097 230.084 122.982 229.06 124.133 228.341C125.292 227.621 126.63 227.262 128.145 227.262C130.184 227.262 131.826 227.816 133.07 228.925C134.314 230.034 135.038 231.599 135.241 233.622H132.042C131.89 232.293 131.5 231.337 130.874 230.753C130.256 230.16 129.346 229.864 128.145 229.864C126.748 229.864 125.673 230.376 124.92 231.4C124.175 232.416 123.794 233.91 123.777 235.882V237.52C123.777 239.517 124.133 241.04 124.844 242.09C125.563 243.139 126.613 243.664 127.992 243.664C129.253 243.664 130.201 243.381 130.836 242.813C131.471 242.246 131.873 241.303 132.042 239.982H135.241ZM141.106 246H138.021V226.5H141.106V246ZM147.759 246H144.674V232.264H147.759V246ZM144.483 228.696C144.483 228.222 144.632 227.829 144.928 227.516C145.232 227.202 145.664 227.046 146.223 227.046C146.781 227.046 147.213 227.202 147.518 227.516C147.822 227.829 147.975 228.222 147.975 228.696C147.975 229.162 147.822 229.551 147.518 229.864C147.213 230.169 146.781 230.321 146.223 230.321C145.664 230.321 145.232 230.169 144.928 229.864C144.632 229.551 144.483 229.162 144.483 228.696ZM156.772 243.791C157.543 243.791 158.182 243.567 158.689 243.118C159.197 242.67 159.468 242.115 159.502 241.455H162.409C162.375 242.31 162.109 243.11 161.609 243.854C161.11 244.591 160.433 245.175 159.578 245.606C158.723 246.038 157.801 246.254 156.811 246.254C154.889 246.254 153.366 245.632 152.24 244.388C151.115 243.144 150.552 241.425 150.552 239.233V238.916C150.552 236.826 151.11 235.154 152.228 233.901C153.345 232.64 154.868 232.01 156.798 232.01C158.431 232.01 159.76 232.488 160.784 233.444C161.817 234.392 162.358 235.641 162.409 237.189H159.502C159.468 236.402 159.197 235.755 158.689 235.247C158.19 234.739 157.551 234.485 156.772 234.485C155.774 234.485 155.004 234.849 154.462 235.577C153.92 236.297 153.645 237.393 153.637 238.865V239.36C153.637 240.85 153.903 241.963 154.437 242.699C154.978 243.427 155.757 243.791 156.772 243.791ZM169.201 240.109L167.83 241.519V246H164.745V226.5H167.83V237.748L168.795 236.542L172.591 232.264H176.298L171.194 237.989L176.844 246H173.276L169.201 240.109Z" fill="white"/>
<defs>
<filter id="filter0_d" x="0" y="0" width="296" height="296" filterUnits="userSpaceOnUse" color-interpolation-filters="sRGB">
<feFlood flood-opacity="0" result="BackgroundImageFix"/>
<feColorMatrix in="SourceAlpha" type="matrix" values="0 0 0 0 0 0 0 0 0 0 0 0 0 0 0 0 0 0 127 0"/>
<feOffset dy="11"/>
<feGaussianBlur stdDeviation="10"/>
<feColorMatrix type="matrix" values="0 0 0 0 0 0 0 0 0 0 0 0 0 0 0 0 0 0 0.25 0"/>
<feBlend mode="normal" in2="BackgroundImageFix" result="effect1_dropShadow"/>
<feBlend mode="normal" in="SourceGraphic" in2="effect1_dropShadow" result="shape"/>
</filter>
</defs>
</svg>
