<svg width="296" height="296" viewBox="0 0 296 296" fill="none" xmlns="http://www.w3.org/2000/svg">
<g filter="url(#filter0_d)">
<rect x="20" y="9" width="256" height="256" rx="10" fill="#C4C4C4"/>
<path d="M110.939 206.448H96.6313V217.167H113.355V222H90.5781V187.164H113.188V192.045H96.6313V201.663H110.939V206.448ZM123.189 196.112L123.356 198.816C125.175 196.694 127.663 195.634 130.821 195.634C134.283 195.634 136.651 196.958 137.927 199.605C139.809 196.958 142.457 195.634 145.871 195.634C148.726 195.634 150.847 196.423 152.235 198.002C153.639 199.582 154.356 201.91 154.388 204.989V222H148.574V205.156C148.574 203.513 148.215 202.309 147.498 201.543C146.78 200.778 145.591 200.395 143.933 200.395C142.609 200.395 141.524 200.754 140.679 201.472C139.849 202.174 139.267 203.099 138.932 204.247L138.956 222H133.142V204.965C133.062 201.918 131.507 200.395 128.477 200.395C126.148 200.395 124.497 201.344 123.524 203.242V222H117.71V196.112H123.189ZM175.826 222C175.57 221.506 175.347 220.7 175.156 219.583C173.306 221.514 171.041 222.479 168.361 222.479C165.761 222.479 163.639 221.737 161.997 220.253C160.354 218.77 159.532 216.936 159.532 214.75C159.532 211.991 160.553 209.878 162.595 208.41C164.652 206.927 167.587 206.185 171.399 206.185H174.964V204.486C174.964 203.146 174.59 202.078 173.84 201.28C173.09 200.467 171.95 200.06 170.418 200.06C169.095 200.06 168.01 200.395 167.165 201.065C166.319 201.719 165.896 202.556 165.896 203.577H160.083C160.083 202.158 160.553 200.834 161.494 199.605C162.435 198.361 163.711 197.388 165.322 196.687C166.949 195.985 168.76 195.634 170.753 195.634C173.784 195.634 176.201 196.399 178.003 197.931C179.805 199.446 180.73 201.583 180.778 204.343V216.019C180.778 218.347 181.105 220.206 181.759 221.593V222H175.826ZM169.438 217.813C170.586 217.813 171.663 217.534 172.667 216.976C173.688 216.417 174.454 215.668 174.964 214.727V209.846H171.83C169.677 209.846 168.058 210.221 166.973 210.97C165.889 211.72 165.346 212.781 165.346 214.152C165.346 215.269 165.713 216.162 166.447 216.832C167.196 217.486 168.193 217.813 169.438 217.813ZM193.052 222H187.238V196.112H193.052V222ZM186.879 189.389C186.879 188.496 187.159 187.754 187.717 187.164C188.291 186.574 189.104 186.279 190.157 186.279C191.21 186.279 192.023 186.574 192.598 187.164C193.172 187.754 193.459 188.496 193.459 189.389C193.459 190.266 193.172 191 192.598 191.59C192.023 192.165 191.21 192.452 190.157 192.452C189.104 192.452 188.291 192.165 187.717 191.59C187.159 191 186.879 190.266 186.879 189.389ZM205.589 222H199.775V185.25H205.589V222Z" fill="white"/>
</g>
<g filter="url(#filter1_d)">
<path d="M187.663 83.1259V70.6093H170.6L147.5 53.8372L124.4 70.6093H107.338V83.1259L95 92.1378V148.963H200V92.1378L187.663 83.1259ZM147.5 60.0954L161.938 70.6093H133.063L147.5 60.0954ZM112.325 74.865H182.675V104.404L161.15 120.175L147.5 110.162L134.112 119.925L112.325 104.404V74.865ZM100.25 94.6411L107.338 89.3842V101.15L100.25 96.1431V94.6411ZM100.25 143.956V102.401L129.388 123.68L101.825 143.956H100.25ZM110.75 143.956L147.5 116.921L184.25 143.956H110.75ZM194.75 143.956H193.175L165.613 123.68L194.75 102.401V143.956ZM194.75 96.1431L187.663 101.15V89.8848L194.75 95.1418V96.1431Z" fill="white"/>
<path d="M165.088 81.6238H129.912V86.3801H165.088V81.6238ZM174.012 91.1364H120.725V96.3933H174.012V91.1364ZM174.012 100.649H120.725V105.906H174.012V100.649Z" fill="white"/>
</g>
<defs>
<filter id="filter0_d" x="0" y="0" width="296" height="296" filterUnits="userSpaceOnUse" color-interpolation-filters="sRGB">
<feFlood flood-opacity="0" result="BackgroundImageFix"/>
<feColorMatrix in="SourceAlpha" type="matrix" values="0 0 0 0 0 0 0 0 0 0 0 0 0 0 0 0 0 0 127 0"/>
<feOffset dy="11"/>
<feGaussianBlur stdDeviation="10"/>
<feColorMatrix type="matrix" values="0 0 0 0 0 0 0 0 0 0 0 0 0 0 0 0 0 0 0.25 0"/>
<feBlend mode="normal" in2="BackgroundImageFix" result="effect1_dropShadow"/>
<feBlend mode="normal" in="SourceGraphic" in2="effect1_dropShadow" result="shape"/>
</filter>
<filter id="filter1_d" x="91" y="53.8372" width="113" height="103.126" filterUnits="userSpaceOnUse" color-interpolation-filters="sRGB">
<feFlood flood-opacity="0" result="BackgroundImageFix"/>
<feColorMatrix in="SourceAlpha" type="matrix" values="0 0 0 0 0 0 0 0 0 0 0 0 0 0 0 0 0 0 127 0"/>
<feOffset dy="4"/>
<feGaussianBlur stdDeviation="2"/>
<feColorMatrix type="matrix" values="0 0 0 0 0 0 0 0 0 0 0 0 0 0 0 0 0 0 0.25 0"/>
<feBlend mode="normal" in2="BackgroundImageFix" result="effect1_dropShadow"/>
<feBlend mode="normal" in="SourceGraphic" in2="effect1_dropShadow" result="shape"/>
</filter>
</defs>
</svg>
