<svg width="296" height="296" viewBox="0 0 296 296" fill="none" xmlns="http://www.w3.org/2000/svg">
<g filter="url(#filter0_d)">
<rect x="20" y="9" width="256" height="256" rx="10" fill="#C4C4C4"/>
<path d="M50.7183 224H44.9351V190.586H50.7183V224ZM62.4912 199.169L62.6519 202.038C64.4878 199.819 66.8975 198.71 69.8809 198.71C75.0521 198.71 77.6836 201.67 77.7754 207.591V224H72.1987V207.913C72.1987 206.337 71.8545 205.174 71.166 204.424C70.4928 203.659 69.3836 203.277 67.8384 203.277C65.5894 203.277 63.9141 204.294 62.8125 206.329V224H57.2358V199.169H62.4912ZM97.397 217.253C97.397 216.258 96.9839 215.501 96.1577 214.981C95.3468 214.461 93.9928 214.002 92.0957 213.604C90.1986 213.206 88.6151 212.701 87.3452 212.089C84.5607 210.743 83.1685 208.792 83.1685 206.237C83.1685 204.095 84.0711 202.305 85.8765 200.867C87.6818 199.429 89.9767 198.71 92.7612 198.71C95.7293 198.71 98.1237 199.444 99.9443 200.913C101.78 202.382 102.698 204.287 102.698 206.627H97.1216C97.1216 205.556 96.7238 204.669 95.9282 203.965C95.1326 203.246 94.077 202.887 92.7612 202.887C91.5373 202.887 90.5352 203.17 89.7549 203.736C88.9899 204.302 88.6074 205.059 88.6074 206.008C88.6074 206.865 88.967 207.53 89.686 208.004C90.4051 208.479 91.8586 208.961 94.0464 209.45C96.2342 209.924 97.9478 210.498 99.187 211.171C100.442 211.829 101.367 212.625 101.964 213.558C102.576 214.491 102.882 215.624 102.882 216.955C102.882 219.188 101.956 221.001 100.105 222.394C98.2537 223.771 95.8288 224.459 92.8301 224.459C90.7952 224.459 88.9823 224.092 87.3911 223.357C85.8 222.623 84.5607 221.613 83.6733 220.328C82.786 219.043 82.3423 217.658 82.3423 216.174H87.7583C87.8348 217.49 88.332 218.507 89.25 219.227C90.168 219.93 91.3843 220.282 92.8989 220.282C94.3677 220.282 95.4845 220.007 96.2495 219.456C97.0145 218.89 97.397 218.156 97.397 217.253ZM114.747 193.133V199.169H119.13V203.3H114.747V217.161C114.747 218.11 114.93 218.798 115.297 219.227C115.68 219.64 116.353 219.846 117.317 219.846C117.959 219.846 118.61 219.77 119.268 219.617V223.931C117.998 224.283 116.774 224.459 115.596 224.459C111.312 224.459 109.17 222.095 109.17 217.368V203.3H105.085V199.169H109.17V193.133H114.747ZM138.247 224C138.002 223.526 137.788 222.753 137.604 221.682C135.829 223.533 133.657 224.459 131.086 224.459C128.593 224.459 126.558 223.748 124.982 222.325C123.406 220.902 122.618 219.142 122.618 217.046C122.618 214.4 123.597 212.372 125.556 210.965C127.529 209.542 130.344 208.831 134.001 208.831H137.42V207.201C137.42 205.916 137.061 204.891 136.342 204.126C135.623 203.346 134.529 202.956 133.06 202.956C131.79 202.956 130.75 203.277 129.939 203.919C129.128 204.547 128.723 205.35 128.723 206.329H123.146C123.146 204.967 123.597 203.698 124.5 202.52C125.403 201.326 126.627 200.393 128.172 199.72C129.732 199.047 131.469 198.71 133.381 198.71C136.288 198.71 138.606 199.444 140.335 200.913C142.064 202.367 142.951 204.417 142.997 207.063V218.263C142.997 220.496 143.311 222.279 143.938 223.61V224H138.247ZM132.119 219.984C133.221 219.984 134.253 219.716 135.217 219.181C136.196 218.645 136.931 217.926 137.42 217.023V212.342H134.414C132.349 212.342 130.796 212.701 129.755 213.42C128.715 214.139 128.195 215.157 128.195 216.473C128.195 217.544 128.547 218.4 129.25 219.043C129.97 219.67 130.926 219.984 132.119 219.984ZM147.862 211.401C147.862 207.545 148.765 204.47 150.57 202.175C152.391 199.865 154.801 198.71 157.799 198.71C160.63 198.71 162.856 199.697 164.478 201.67L164.73 199.169H169.756V223.243C169.756 226.501 168.738 229.072 166.704 230.954C164.684 232.835 161.953 233.776 158.511 233.776C156.69 233.776 154.908 233.394 153.164 232.629C151.435 231.879 150.119 230.892 149.216 229.668L151.855 226.318C153.569 228.353 155.68 229.37 158.189 229.37C160.041 229.37 161.502 228.865 162.573 227.855C163.644 226.861 164.179 225.392 164.179 223.449V221.774C162.573 223.564 160.431 224.459 157.753 224.459C154.847 224.459 152.467 223.304 150.616 220.994C148.78 218.683 147.862 215.486 147.862 211.401ZM153.416 211.883C153.416 214.377 153.921 216.343 154.931 217.781C155.956 219.204 157.371 219.915 159.176 219.915C161.425 219.915 163.093 218.951 164.179 217.023V206.1C163.124 204.218 161.471 203.277 159.222 203.277C157.386 203.277 155.956 204.004 154.931 205.457C153.921 206.91 153.416 209.052 153.416 211.883ZM188.505 204.264C187.771 204.141 187.014 204.08 186.233 204.08C183.678 204.08 181.957 205.059 181.07 207.018V224H175.493V199.169H180.817L180.955 201.946C182.301 199.789 184.168 198.71 186.555 198.71C187.35 198.71 188.008 198.817 188.528 199.031L188.505 204.264ZM206.176 224C205.931 223.526 205.717 222.753 205.534 221.682C203.759 223.533 201.586 224.459 199.016 224.459C196.522 224.459 194.487 223.748 192.912 222.325C191.336 220.902 190.548 219.142 190.548 217.046C190.548 214.4 191.527 212.372 193.485 210.965C195.459 209.542 198.274 208.831 201.931 208.831H205.35V207.201C205.35 205.916 204.991 204.891 204.271 204.126C203.552 203.346 202.458 202.956 200.99 202.956C199.72 202.956 198.68 203.277 197.869 203.919C197.058 204.547 196.652 205.35 196.652 206.329H191.076C191.076 204.967 191.527 203.698 192.43 202.52C193.332 201.326 194.556 200.393 196.102 199.72C197.662 199.047 199.399 198.71 201.311 198.71C204.218 198.71 206.536 199.444 208.265 200.913C209.993 202.367 210.881 204.417 210.927 207.063V218.263C210.927 220.496 211.24 222.279 211.868 223.61V224H206.176ZM200.049 219.984C201.15 219.984 202.183 219.716 203.147 219.181C204.126 218.645 204.861 217.926 205.35 217.023V212.342H202.344C200.278 212.342 198.725 212.701 197.685 213.42C196.645 214.139 196.125 215.157 196.125 216.473C196.125 217.544 196.476 218.4 197.18 219.043C197.899 219.67 198.855 219.984 200.049 219.984ZM222.011 199.169L222.172 201.762C223.916 199.727 226.303 198.71 229.332 198.71C232.652 198.71 234.924 199.98 236.148 202.52C237.953 199.98 240.493 198.71 243.767 198.71C246.506 198.71 248.541 199.467 249.872 200.982C251.218 202.497 251.906 204.73 251.937 207.683V224H246.36V207.844C246.36 206.268 246.016 205.113 245.328 204.378C244.639 203.644 243.499 203.277 241.908 203.277C240.638 203.277 239.598 203.621 238.787 204.31C237.992 204.983 237.433 205.87 237.112 206.972L237.135 224H231.558V207.66C231.482 204.738 229.99 203.277 227.083 203.277C224.849 203.277 223.266 204.187 222.333 206.008V224H216.756V199.169H222.011Z" fill="white"/>
</g>
<g filter="url(#filter1_d)">
<path d="M167.676 75.1211H128.331C122.048 75.1211 116.943 80.2269 116.943 86.5101V125.848C116.943 132.131 122.048 137.244 128.331 137.244H167.676C173.952 137.244 179.065 132.131 179.065 125.848V86.5101C179.065 80.2266 173.952 75.1211 167.676 75.1211ZM148 126.631C136.726 126.631 127.549 117.453 127.549 106.179C127.549 94.9053 136.726 85.7281 148 85.7281C159.281 85.7281 168.451 94.9053 168.451 106.179C168.451 117.453 159.274 126.631 148 126.631ZM169.112 89.9568C166.441 89.9568 164.272 87.7891 164.272 85.1177C164.272 82.4526 166.441 80.2778 169.112 80.2778C171.776 80.2778 173.952 82.4526 173.952 85.1177C173.952 87.7891 171.776 89.9568 169.112 89.9568Z" fill="white"/>
<path d="M148 94.3743C141.494 94.3743 136.194 99.6667 136.194 106.18C136.194 112.693 141.494 117.992 148 117.992C154.513 117.992 159.813 112.693 159.813 106.18C159.813 99.6735 154.513 94.3743 148 94.3743Z" fill="white"/>
<path d="M148 40C111.55 40 82 69.5495 82 106C82 142.45 111.55 172 148 172C184.45 172 214 142.45 214 106C214 69.5498 184.45 40 148 40ZM187.703 125.848C187.703 136.9 178.72 145.883 167.676 145.883H128.331C117.287 145.883 108.297 136.9 108.297 125.848V86.5102C108.297 75.4668 117.287 66.4763 128.331 66.4763H167.676C178.72 66.4763 187.703 75.4668 187.703 86.5102V125.848Z" fill="white"/>
</g>
<defs>
<filter id="filter0_d" x="0" y="0" width="296" height="296" filterUnits="userSpaceOnUse" color-interpolation-filters="sRGB">
<feFlood flood-opacity="0" result="BackgroundImageFix"/>
<feColorMatrix in="SourceAlpha" type="matrix" values="0 0 0 0 0 0 0 0 0 0 0 0 0 0 0 0 0 0 127 0"/>
<feOffset dy="11"/>
<feGaussianBlur stdDeviation="10"/>
<feColorMatrix type="matrix" values="0 0 0 0 0 0 0 0 0 0 0 0 0 0 0 0 0 0 0.25 0"/>
<feBlend mode="normal" in2="BackgroundImageFix" result="effect1_dropShadow"/>
<feBlend mode="normal" in="SourceGraphic" in2="effect1_dropShadow" result="shape"/>
</filter>
<filter id="filter1_d" x="78" y="40" width="140" height="140" filterUnits="userSpaceOnUse" color-interpolation-filters="sRGB">
<feFlood flood-opacity="0" result="BackgroundImageFix"/>
<feColorMatrix in="SourceAlpha" type="matrix" values="0 0 0 0 0 0 0 0 0 0 0 0 0 0 0 0 0 0 127 0"/>
<feOffset dy="4"/>
<feGaussianBlur stdDeviation="2"/>
<feColorMatrix type="matrix" values="0 0 0 0 0 0 0 0 0 0 0 0 0 0 0 0 0 0 0.25 0"/>
<feBlend mode="normal" in2="BackgroundImageFix" result="effect1_dropShadow"/>
<feBlend mode="normal" in="SourceGraphic" in2="effect1_dropShadow" result="shape"/>
</filter>
</defs>
</svg>
