<svg width="296" height="296" viewBox="0 0 296 296" fill="none" xmlns="http://www.w3.org/2000/svg">
<g filter="url(#filter0_d)">
<rect x="20" y="9" width="256" height="256" rx="10" fill="#C4C4C4"/>
<path d="M131.762 95.2627V140.703C131.762 144.972 130.694 148.225 128.56 150.462C126.451 152.725 123.353 153.857 119.264 153.857C117.541 153.857 115.882 153.638 114.288 153.201V145.795C115.265 146.026 116.371 146.142 117.605 146.142C120.717 146.142 122.311 144.445 122.388 141.05V95.2627H131.762ZM121.578 84.4233C121.578 82.9832 122.028 81.7874 122.928 80.8359C123.854 79.8844 125.166 79.4087 126.863 79.4087C128.56 79.4087 129.872 79.8844 130.797 80.8359C131.723 81.7874 132.186 82.9832 132.186 84.4233C132.186 85.8377 131.723 87.0207 130.797 87.9722C129.872 88.8979 128.56 89.3608 126.863 89.3608C125.166 89.3608 123.854 88.8979 122.928 87.9722C122.028 87.0207 121.578 85.8377 121.578 84.4233ZM165.206 125.659C165.206 123.988 164.511 122.715 163.123 121.84C161.76 120.966 159.484 120.194 156.295 119.526C153.106 118.857 150.444 118.009 148.31 116.98C143.63 114.717 141.29 111.438 141.29 107.144C141.29 103.543 142.807 100.535 145.841 98.1172C148.876 95.6999 152.733 94.4912 157.414 94.4912C162.403 94.4912 166.427 95.7256 169.487 98.1943C172.573 100.663 174.116 103.865 174.116 107.799H164.743C164.743 105.999 164.074 104.508 162.737 103.325C161.4 102.116 159.625 101.512 157.414 101.512C155.356 101.512 153.672 101.987 152.36 102.939C151.075 103.89 150.432 105.163 150.432 106.758C150.432 108.198 151.036 109.317 152.245 110.114C153.453 110.911 155.896 111.721 159.574 112.544C163.251 113.341 166.131 114.306 168.214 115.437C170.323 116.543 171.879 117.88 172.882 119.449C173.91 121.017 174.425 122.92 174.425 125.158C174.425 128.912 172.869 131.96 169.757 134.3C166.646 136.614 162.57 137.771 157.529 137.771C154.109 137.771 151.062 137.154 148.387 135.92C145.713 134.686 143.63 132.988 142.138 130.828C140.647 128.668 139.901 126.341 139.901 123.846H149.004C149.133 126.058 149.969 127.768 151.512 128.977C153.055 130.16 155.099 130.751 157.645 130.751C160.114 130.751 161.991 130.288 163.277 129.362C164.563 128.411 165.206 127.176 165.206 125.659Z" fill="white"/>
<path d="M68.2539 207.867V230.875C68.2539 233.036 67.7135 234.684 66.6328 235.816C65.5651 236.962 63.9961 237.535 61.9258 237.535C61.0534 237.535 60.2135 237.424 59.4062 237.203V233.453C59.901 233.57 60.4609 233.629 61.0859 233.629C62.6615 233.629 63.4688 232.77 63.5078 231.051V207.867H68.2539ZM63.0977 202.379C63.0977 201.65 63.3255 201.044 63.7812 200.562C64.25 200.081 64.9141 199.84 65.7734 199.84C66.6328 199.84 67.2969 200.081 67.7656 200.562C68.2344 201.044 68.4688 201.65 68.4688 202.379C68.4688 203.095 68.2344 203.694 67.7656 204.176C67.2969 204.645 66.6328 204.879 65.7734 204.879C64.9141 204.879 64.25 204.645 63.7812 204.176C63.3255 203.694 63.0977 203.095 63.0977 202.379ZM85.9688 229C85.7604 228.596 85.5781 227.939 85.4219 227.027C83.9115 228.603 82.0625 229.391 79.875 229.391C77.7526 229.391 76.0208 228.785 74.6797 227.574C73.3385 226.363 72.668 224.866 72.668 223.082C72.668 220.829 73.5013 219.104 75.168 217.906C76.8477 216.695 79.2435 216.09 82.3555 216.09H85.2656V214.703C85.2656 213.609 84.9596 212.737 84.3477 212.086C83.7357 211.422 82.8047 211.09 81.5547 211.09C80.474 211.09 79.5885 211.363 78.8984 211.91C78.2083 212.444 77.8633 213.128 77.8633 213.961H73.1172C73.1172 212.802 73.5013 211.721 74.2695 210.719C75.0378 209.703 76.0794 208.909 77.3945 208.336C78.7227 207.763 80.2005 207.477 81.8281 207.477C84.3021 207.477 86.2747 208.102 87.7461 209.352C89.2174 210.589 89.9727 212.333 90.0117 214.586V224.117C90.0117 226.018 90.2786 227.535 90.8125 228.668V229H85.9688ZM80.7539 225.582C81.6914 225.582 82.5703 225.354 83.3906 224.898C84.224 224.443 84.849 223.831 85.2656 223.062V219.078H82.707C80.9492 219.078 79.6276 219.384 78.7422 219.996C77.8568 220.608 77.4141 221.474 77.4141 222.594C77.4141 223.505 77.7135 224.234 78.3125 224.781C78.9245 225.315 79.7383 225.582 80.7539 225.582ZM102.121 222.984L106.594 207.867H111.496L104.172 229H100.051L92.668 207.867H97.5898L102.121 222.984ZM126.789 229C126.581 228.596 126.398 227.939 126.242 227.027C124.732 228.603 122.883 229.391 120.695 229.391C118.573 229.391 116.841 228.785 115.5 227.574C114.159 226.363 113.488 224.866 113.488 223.082C113.488 220.829 114.322 219.104 115.988 217.906C117.668 216.695 120.064 216.09 123.176 216.09H126.086V214.703C126.086 213.609 125.78 212.737 125.168 212.086C124.556 211.422 123.625 211.09 122.375 211.09C121.294 211.09 120.409 211.363 119.719 211.91C119.029 212.444 118.684 213.128 118.684 213.961H113.938C113.938 212.802 114.322 211.721 115.09 210.719C115.858 209.703 116.9 208.909 118.215 208.336C119.543 207.763 121.021 207.477 122.648 207.477C125.122 207.477 127.095 208.102 128.566 209.352C130.038 210.589 130.793 212.333 130.832 214.586V224.117C130.832 226.018 131.099 227.535 131.633 228.668V229H126.789ZM121.574 225.582C122.512 225.582 123.391 225.354 124.211 224.898C125.044 224.443 125.669 223.831 126.086 223.062V219.078H123.527C121.77 219.078 120.448 219.384 119.562 219.996C118.677 220.608 118.234 221.474 118.234 222.594C118.234 223.505 118.534 224.234 119.133 224.781C119.745 225.315 120.559 225.582 121.574 225.582ZM147.648 223.258C147.648 222.411 147.297 221.767 146.594 221.324C145.904 220.882 144.751 220.491 143.137 220.152C141.522 219.814 140.174 219.384 139.094 218.863C136.724 217.717 135.539 216.057 135.539 213.883C135.539 212.06 136.307 210.536 137.844 209.312C139.38 208.089 141.333 207.477 143.703 207.477C146.229 207.477 148.267 208.102 149.816 209.352C151.379 210.602 152.16 212.223 152.16 214.215H147.414C147.414 213.303 147.076 212.548 146.398 211.949C145.721 211.337 144.823 211.031 143.703 211.031C142.661 211.031 141.809 211.272 141.145 211.754C140.493 212.236 140.168 212.88 140.168 213.688C140.168 214.417 140.474 214.983 141.086 215.387C141.698 215.79 142.935 216.201 144.797 216.617C146.659 217.021 148.117 217.509 149.172 218.082C150.24 218.642 151.027 219.319 151.535 220.113C152.056 220.908 152.316 221.871 152.316 223.004C152.316 224.905 151.529 226.448 149.953 227.633C148.378 228.805 146.314 229.391 143.762 229.391C142.03 229.391 140.487 229.078 139.133 228.453C137.779 227.828 136.724 226.969 135.969 225.875C135.214 224.781 134.836 223.603 134.836 222.34H139.445C139.51 223.46 139.934 224.326 140.715 224.938C141.496 225.536 142.531 225.836 143.82 225.836C145.07 225.836 146.021 225.602 146.672 225.133C147.323 224.651 147.648 224.026 147.648 223.258ZM165.148 225.602C166.333 225.602 167.316 225.257 168.098 224.566C168.879 223.876 169.296 223.023 169.348 222.008H173.82C173.768 223.323 173.358 224.553 172.59 225.699C171.822 226.832 170.78 227.73 169.465 228.395C168.15 229.059 166.73 229.391 165.207 229.391C162.251 229.391 159.908 228.434 158.176 226.52C156.444 224.605 155.578 221.962 155.578 218.59V218.102C155.578 214.885 156.438 212.314 158.156 210.387C159.875 208.447 162.219 207.477 165.188 207.477C167.701 207.477 169.745 208.212 171.32 209.684C172.909 211.142 173.742 213.062 173.82 215.445H169.348C169.296 214.234 168.879 213.238 168.098 212.457C167.329 211.676 166.346 211.285 165.148 211.285C163.612 211.285 162.427 211.845 161.594 212.965C160.76 214.072 160.337 215.758 160.324 218.023V218.785C160.324 221.077 160.734 222.789 161.555 223.922C162.388 225.042 163.586 225.602 165.148 225.602ZM188.469 212.203C187.844 212.099 187.199 212.047 186.535 212.047C184.361 212.047 182.896 212.88 182.141 214.547V229H177.395V207.867H181.926L182.043 210.23C183.189 208.395 184.777 207.477 186.809 207.477C187.486 207.477 188.046 207.568 188.488 207.75L188.469 212.203ZM196.516 229H191.77V207.867H196.516V229ZM191.477 202.379C191.477 201.65 191.704 201.044 192.16 200.562C192.629 200.081 193.293 199.84 194.152 199.84C195.012 199.84 195.676 200.081 196.145 200.562C196.613 201.044 196.848 201.65 196.848 202.379C196.848 203.095 196.613 203.694 196.145 204.176C195.676 204.645 195.012 204.879 194.152 204.879C193.293 204.879 192.629 204.645 192.16 204.176C191.704 203.694 191.477 203.095 191.477 202.379ZM220.207 218.648C220.207 221.917 219.465 224.527 217.98 226.48C216.496 228.421 214.504 229.391 212.004 229.391C209.686 229.391 207.831 228.629 206.438 227.105V237.125H201.691V207.867H206.066L206.262 210.016C207.655 208.323 209.549 207.477 211.945 207.477C214.523 207.477 216.542 208.44 218 210.367C219.471 212.281 220.207 214.944 220.207 218.355V218.648ZM215.48 218.238C215.48 216.129 215.057 214.456 214.211 213.219C213.378 211.982 212.18 211.363 210.617 211.363C208.677 211.363 207.284 212.164 206.438 213.766V223.141C207.297 224.781 208.703 225.602 210.656 225.602C212.167 225.602 213.345 224.996 214.191 223.785C215.051 222.561 215.48 220.712 215.48 218.238ZM230.188 202.73V207.867H233.918V211.383H230.188V223.18C230.188 223.987 230.344 224.573 230.656 224.938C230.982 225.289 231.555 225.465 232.375 225.465C232.922 225.465 233.475 225.4 234.035 225.27V228.941C232.954 229.241 231.913 229.391 230.91 229.391C227.264 229.391 225.441 227.379 225.441 223.355V211.383H221.965V207.867H225.441V202.73H230.188Z" fill="white"/>
</g>
<defs>
<filter id="filter0_d" x="0" y="0" width="296" height="296" filterUnits="userSpaceOnUse" color-interpolation-filters="sRGB">
<feFlood flood-opacity="0" result="BackgroundImageFix"/>
<feColorMatrix in="SourceAlpha" type="matrix" values="0 0 0 0 0 0 0 0 0 0 0 0 0 0 0 0 0 0 127 0"/>
<feOffset dy="11"/>
<feGaussianBlur stdDeviation="10"/>
<feColorMatrix type="matrix" values="0 0 0 0 0 0 0 0 0 0 0 0 0 0 0 0 0 0 0.25 0"/>
<feBlend mode="normal" in2="BackgroundImageFix" result="effect1_dropShadow"/>
<feBlend mode="normal" in="SourceGraphic" in2="effect1_dropShadow" result="shape"/>
</filter>
</defs>
</svg>
