<svg width="296" height="296" viewBox="0 0 296 296" fill="none" xmlns="http://www.w3.org/2000/svg">
<g filter="url(#filter0_d)">
<rect x="20" y="9" width="256" height="256" rx="10" fill="#C4C4C4"/>
<path d="M58.2305 217.167H74.0454V222H52.1772V187.164H58.2305V217.167ZM84.3096 222H78.4956V196.112H84.3096V222ZM78.1367 189.389C78.1367 188.496 78.4159 187.754 78.9741 187.164C79.5483 186.574 80.3618 186.279 81.4146 186.279C82.4673 186.279 83.2808 186.574 83.855 187.164C84.4292 187.754 84.7163 188.496 84.7163 189.389C84.7163 190.266 84.4292 191 83.855 191.59C83.2808 192.165 82.4673 192.452 81.4146 192.452C80.3618 192.452 79.5483 192.165 78.9741 191.59C78.4159 191 78.1367 190.266 78.1367 189.389ZM96.0571 196.112L96.2246 199.103C98.1387 196.79 100.651 195.634 103.761 195.634C109.153 195.634 111.896 198.72 111.992 204.893V222H106.178V205.228C106.178 203.585 105.819 202.373 105.101 201.591C104.399 200.794 103.243 200.395 101.632 200.395C99.2871 200.395 97.5405 201.456 96.3921 203.577V222H90.5781V196.112H96.0571ZM126.347 210.898L123.763 213.554V222H117.949V185.25H123.763V206.448L125.582 204.175L132.735 196.112H139.722L130.104 206.903L140.75 222H134.027L126.347 210.898ZM154.46 222.479C150.775 222.479 147.785 221.322 145.488 219.009C143.207 216.681 142.066 213.586 142.066 209.726V209.008C142.066 206.424 142.561 204.119 143.55 202.094C144.555 200.052 145.958 198.465 147.761 197.333C149.563 196.2 151.573 195.634 153.79 195.634C157.315 195.634 160.035 196.758 161.949 199.007C163.879 201.256 164.844 204.438 164.844 208.554V210.898H147.928C148.104 213.036 148.813 214.727 150.058 215.971C151.318 217.215 152.897 217.837 154.795 217.837C157.459 217.837 159.628 216.76 161.303 214.607L164.437 217.598C163.4 219.145 162.013 220.349 160.274 221.21C158.551 222.056 156.613 222.479 154.46 222.479ZM153.766 200.299C152.171 200.299 150.879 200.858 149.89 201.974C148.917 203.091 148.295 204.646 148.024 206.64H159.102V206.209C158.974 204.263 158.456 202.796 157.546 201.807C156.637 200.802 155.377 200.299 153.766 200.299ZM168.289 208.865C168.289 204.877 169.214 201.679 171.064 199.271C172.915 196.846 175.395 195.634 178.505 195.634C181.249 195.634 183.466 196.591 185.157 198.505V185.25H190.971V222H185.707L185.42 219.32C183.681 221.426 181.361 222.479 178.458 222.479C175.427 222.479 172.971 221.258 171.088 218.818C169.222 216.377 168.289 213.06 168.289 208.865ZM174.103 209.367C174.103 211.999 174.605 214.057 175.61 215.54C176.631 217.007 178.075 217.741 179.941 217.741C182.318 217.741 184.056 216.681 185.157 214.559V203.505C184.088 201.432 182.365 200.395 179.989 200.395C178.107 200.395 176.655 201.145 175.634 202.644C174.613 204.127 174.103 206.368 174.103 209.367ZM216.188 222H210.159V187.164H216.188V222ZM228.462 196.112L228.63 199.103C230.544 196.79 233.056 195.634 236.167 195.634C241.558 195.634 244.301 198.72 244.397 204.893V222H238.583V205.228C238.583 203.585 238.224 202.373 237.506 201.591C236.805 200.794 235.648 200.395 234.037 200.395C231.692 200.395 229.946 201.456 228.797 203.577V222H222.983V196.112H228.462Z" fill="white"/>
</g>
<g filter="url(#filter1_d)">
<path d="M195.729 47H100.276C95.7048 47 92 50.4311 92 54.666V146.33C92 150.565 95.706 154 100.276 154H195.729C200.3 154 204 150.564 204 146.33V54.666C204 50.4323 200.3 47 195.729 47ZM125.955 136.566H109.033V88.2568H125.955V136.566ZM117.495 81.6573H117.382C111.707 81.6573 108.029 77.9492 108.029 73.3077C108.029 68.5724 111.816 64.9653 117.602 64.9653C123.39 64.9653 126.951 68.5712 127.063 73.3077C127.063 77.9503 123.391 81.6573 117.495 81.6573ZM186.956 136.566H170.039V110.72C170.039 104.224 167.587 99.7926 161.469 99.7926C156.789 99.7926 154.011 102.783 152.792 105.668C152.339 106.7 152.228 108.141 152.228 109.582V136.565H135.313C135.313 136.565 135.535 92.7865 135.313 88.2556H152.229V95.1048C154.476 91.814 158.488 87.1191 167.473 87.1191C178.607 87.1191 186.956 94.0194 186.956 108.865V136.566ZM152.12 95.2582C152.15 95.213 152.189 95.1583 152.229 95.106V95.2582H152.12Z" fill="white"/>
</g>
<defs>
<filter id="filter0_d" x="0" y="0" width="296" height="296" filterUnits="userSpaceOnUse" color-interpolation-filters="sRGB">
<feFlood flood-opacity="0" result="BackgroundImageFix"/>
<feColorMatrix in="SourceAlpha" type="matrix" values="0 0 0 0 0 0 0 0 0 0 0 0 0 0 0 0 0 0 127 0"/>
<feOffset dy="11"/>
<feGaussianBlur stdDeviation="10"/>
<feColorMatrix type="matrix" values="0 0 0 0 0 0 0 0 0 0 0 0 0 0 0 0 0 0 0.25 0"/>
<feBlend mode="normal" in2="BackgroundImageFix" result="effect1_dropShadow"/>
<feBlend mode="normal" in="SourceGraphic" in2="effect1_dropShadow" result="shape"/>
</filter>
<filter id="filter1_d" x="88" y="47" width="120" height="115" filterUnits="userSpaceOnUse" color-interpolation-filters="sRGB">
<feFlood flood-opacity="0" result="BackgroundImageFix"/>
<feColorMatrix in="SourceAlpha" type="matrix" values="0 0 0 0 0 0 0 0 0 0 0 0 0 0 0 0 0 0 127 0"/>
<feOffset dy="4"/>
<feGaussianBlur stdDeviation="2"/>
<feColorMatrix type="matrix" values="0 0 0 0 0 0 0 0 0 0 0 0 0 0 0 0 0 0 0.25 0"/>
<feBlend mode="normal" in2="BackgroundImageFix" result="effect1_dropShadow"/>
<feBlend mode="normal" in="SourceGraphic" in2="effect1_dropShadow" result="shape"/>
</filter>
</defs>
</svg>
