<svg width="296" height="296" viewBox="0 0 296 296" fill="none" xmlns="http://www.w3.org/2000/svg">
<g filter="url(#filter0_d)">
<rect x="20" y="9" width="256" height="256" rx="10" fill="#C4C4C4"/>
<path d="M52.3018 208.169L52.4624 210.762C54.2065 208.727 56.5933 207.71 59.6226 207.71C62.9425 207.71 65.2145 208.98 66.4385 211.52C68.2438 208.98 70.7835 207.71 74.0576 207.71C76.7962 207.71 78.8311 208.467 80.1621 209.982C81.5085 211.497 82.1969 213.73 82.2275 216.683V233H76.6509V216.844C76.6509 215.268 76.3066 214.113 75.6182 213.378C74.9297 212.644 73.7899 212.277 72.1987 212.277C70.9289 212.277 69.8885 212.621 69.0776 213.31C68.2821 213.983 67.7236 214.87 67.4023 215.972L67.4253 233H61.8486V216.66C61.7721 213.738 60.2804 212.277 57.3735 212.277C55.1398 212.277 53.5563 213.187 52.623 215.008V233H47.0464V208.169H52.3018ZM86.9092 220.355C86.9092 217.922 87.3911 215.735 88.355 213.792C89.3188 211.833 90.6729 210.334 92.417 209.293C94.1611 208.238 96.1654 207.71 98.4297 207.71C101.78 207.71 104.496 208.789 106.577 210.946C108.673 213.103 109.805 215.964 109.973 219.529L109.996 220.837C109.996 223.285 109.522 225.473 108.573 227.4C107.64 229.328 106.294 230.82 104.534 231.875C102.79 232.931 100.771 233.459 98.4756 233.459C94.972 233.459 92.1646 232.296 90.0532 229.971C87.9572 227.63 86.9092 224.516 86.9092 220.63V220.355ZM92.4858 220.837C92.4858 223.392 93.0137 225.396 94.0693 226.85C95.125 228.288 96.5938 229.007 98.4756 229.007C100.357 229.007 101.819 228.272 102.859 226.804C103.915 225.335 104.442 223.185 104.442 220.355C104.442 217.846 103.899 215.857 102.813 214.388C101.742 212.919 100.281 212.185 98.4297 212.185C96.609 212.185 95.1632 212.912 94.0923 214.365C93.0213 215.803 92.4858 217.961 92.4858 220.837ZM119.887 208.169L120.048 211.038C121.884 208.819 124.293 207.71 127.277 207.71C132.448 207.71 135.08 210.67 135.171 216.591V233H129.595V216.913C129.595 215.337 129.25 214.174 128.562 213.424C127.889 212.659 126.78 212.277 125.234 212.277C122.985 212.277 121.31 213.294 120.208 215.329V233H114.632V208.169H119.887ZM139.899 220.401C139.899 216.545 140.802 213.47 142.607 211.175C144.428 208.865 146.837 207.71 149.836 207.71C152.666 207.71 154.892 208.697 156.514 210.67L156.767 208.169H161.792V232.243C161.792 235.501 160.775 238.072 158.74 239.954C156.721 241.835 153.99 242.776 150.547 242.776C148.727 242.776 146.944 242.394 145.2 241.629C143.471 240.879 142.156 239.892 141.253 238.668L143.892 235.318C145.606 237.353 147.717 238.37 150.226 238.37C152.077 238.37 153.538 237.865 154.609 236.855C155.68 235.861 156.216 234.392 156.216 232.449V230.774C154.609 232.564 152.467 233.459 149.79 233.459C146.883 233.459 144.504 232.304 142.653 229.994C140.817 227.683 139.899 224.486 139.899 220.401ZM145.453 220.883C145.453 223.377 145.958 225.343 146.967 226.781C147.992 228.204 149.408 228.915 151.213 228.915C153.462 228.915 155.13 227.951 156.216 226.023V215.1C155.16 213.218 153.508 212.277 151.259 212.277C149.423 212.277 147.992 213.004 146.967 214.457C145.958 215.91 145.453 218.052 145.453 220.883ZM166.497 220.355C166.497 217.922 166.979 215.735 167.943 213.792C168.907 211.833 170.261 210.334 172.005 209.293C173.749 208.238 175.753 207.71 178.018 207.71C181.368 207.71 184.084 208.789 186.165 210.946C188.261 213.103 189.393 215.964 189.561 219.529L189.584 220.837C189.584 223.285 189.11 225.473 188.161 227.4C187.228 229.328 185.882 230.82 184.122 231.875C182.378 232.931 180.358 233.459 178.063 233.459C174.56 233.459 171.752 232.296 169.641 229.971C167.545 227.63 166.497 224.516 166.497 220.63V220.355ZM172.074 220.837C172.074 223.392 172.602 225.396 173.657 226.85C174.713 228.288 176.182 229.007 178.063 229.007C179.945 229.007 181.406 228.272 182.447 226.804C183.502 225.335 184.03 223.185 184.03 220.355C184.03 217.846 183.487 215.857 182.401 214.388C181.33 212.919 179.869 212.185 178.018 212.185C176.197 212.185 174.751 212.912 173.68 214.365C172.609 215.803 172.074 217.961 172.074 220.837ZM194.839 233V199.586H204.708C207.66 199.586 210.277 200.244 212.556 201.56C214.851 202.875 216.626 204.742 217.88 207.159C219.135 209.576 219.762 212.346 219.762 215.467V217.142C219.762 220.309 219.127 223.094 217.857 225.496C216.603 227.898 214.805 229.749 212.464 231.049C210.139 232.35 207.469 233 204.455 233H194.839ZM200.646 204.268V228.364H204.432C207.477 228.364 209.81 227.416 211.432 225.519C213.069 223.606 213.903 220.868 213.933 217.303V215.444C213.933 211.818 213.145 209.049 211.569 207.136C209.993 205.224 207.706 204.268 204.708 204.268H200.646ZM225.545 233V199.586H236.997C240.776 199.586 243.652 200.343 245.626 201.858C247.6 203.373 248.586 205.629 248.586 208.628C248.586 210.158 248.173 211.535 247.347 212.759C246.521 213.983 245.312 214.931 243.721 215.604C245.527 216.094 246.919 217.02 247.898 218.381C248.892 219.728 249.39 221.349 249.39 223.247C249.39 226.383 248.38 228.793 246.36 230.476C244.356 232.159 241.48 233 237.731 233H225.545ZM231.352 217.922V228.364H237.8C239.621 228.364 241.044 227.913 242.069 227.01C243.094 226.108 243.606 224.853 243.606 223.247C243.606 219.774 241.832 217.999 238.282 217.922H231.352ZM231.352 213.654H237.043C238.848 213.654 240.256 213.248 241.266 212.438C242.291 211.611 242.803 210.449 242.803 208.949C242.803 207.297 242.329 206.104 241.38 205.369C240.447 204.635 238.986 204.268 236.997 204.268H231.352V213.654Z" fill="white"/>
</g>
<path fill-rule="evenodd" clip-rule="evenodd" d="M181.711 104.968C181.233 98.8839 179.779 93.0174 177.756 87.2703C173.567 74.4374 166.844 63.0803 157.374 53.3083C154.98 50.8367 152.317 48.5722 150.648 45.496C149.591 43.5503 148.585 41.5778 147.556 39.6168L146.904 38C146.794 38.3709 146.724 38.503 146.72 38.6363C146.636 41.8331 144.795 44.0011 142.501 46.0244C139.923 48.3016 137.522 50.7732 135.044 53.1597C132.502 56.4467 129.962 59.7336 127.423 63.0193C125.367 66.7343 123.314 70.4493 121.261 74.1643L117.141 85.1086L117.017 85.2788C114.749 92.6046 113.631 100.136 113.081 107.744C112.874 110.603 113.109 113.504 113.273 116.378C113.507 120.487 114.233 124.526 115.322 128.501C119.276 142.944 127.3 154.925 138.271 165.103C140.31 166.995 142.402 168.714 144.53 170.514C144.894 169.288 145.185 168.063 145.516 166.837C145.846 165.617 146.181 164.402 146.404 163.178C146.179 164.402 145.928 165.617 145.678 166.837L144.612 170.514L145.565 173.69L146.448 178.623L146.869 183.771C146.865 184.816 146.822 185.864 146.887 186.908C146.903 187.175 147.259 187.421 147.458 187.678L149.235 188.291L151.087 189L150.769 184.424L150.755 179.918L151.394 173.053L151.858 171.558L153.184 169.246C154.821 167.951 156.579 166.775 158.07 165.333C160.769 162.725 163.462 160.083 165.877 157.226C169.011 153.522 171.708 149.478 173.872 145.14C175.321 142.239 176.685 139.28 177.813 136.248C178.808 133.576 179.424 130.768 180.208 128.02C180.277 127.821 180.37 127.627 180.414 127.425C182.034 120.007 182.306 112.513 181.711 104.968V104.968ZM151.235 167.678L150.196 165.439L151.235 167.678L152.763 168.961L151.235 167.678Z" fill="white"/>
<defs>
<filter id="filter0_d" x="0" y="0" width="296" height="296" filterUnits="userSpaceOnUse" color-interpolation-filters="sRGB">
<feFlood flood-opacity="0" result="BackgroundImageFix"/>
<feColorMatrix in="SourceAlpha" type="matrix" values="0 0 0 0 0 0 0 0 0 0 0 0 0 0 0 0 0 0 127 0"/>
<feOffset dy="11"/>
<feGaussianBlur stdDeviation="10"/>
<feColorMatrix type="matrix" values="0 0 0 0 0 0 0 0 0 0 0 0 0 0 0 0 0 0 0.25 0"/>
<feBlend mode="normal" in2="BackgroundImageFix" result="effect1_dropShadow"/>
<feBlend mode="normal" in="SourceGraphic" in2="effect1_dropShadow" result="shape"/>
</filter>
</defs>
</svg>
