<svg width="296" height="296" viewBox="0 0 296 296" fill="none" xmlns="http://www.w3.org/2000/svg">
<g filter="url(#filter0_d)">
<rect x="20" y="9" width="256" height="256" rx="10" fill="#C4C4C4"/>
<path d="M50.9551 206.754L51.1055 209.182C52.7383 207.277 54.9727 206.324 57.8086 206.324C60.9167 206.324 63.0436 207.513 64.1895 209.891C65.8796 207.513 68.2572 206.324 71.3223 206.324C73.8861 206.324 75.791 207.033 77.0371 208.451C78.2975 209.869 78.9421 211.96 78.9707 214.725V230H73.75V214.875C73.75 213.4 73.4277 212.318 72.7832 211.631C72.1387 210.943 71.0716 210.6 69.582 210.6C68.3932 210.6 67.4193 210.922 66.6602 211.566C65.9154 212.197 65.3926 213.027 65.0918 214.059L65.1133 230H59.8926V214.703C59.821 211.967 58.4245 210.6 55.7031 210.6C53.612 210.6 52.1296 211.452 51.2559 213.156V230H46.0352V206.754H50.9551ZM83.3535 218.162C83.3535 215.885 83.8047 213.837 84.707 212.018C85.6094 210.184 86.877 208.781 88.5098 207.807C90.1426 206.818 92.0189 206.324 94.1387 206.324C97.2754 206.324 99.8177 207.334 101.766 209.354C103.728 211.373 104.788 214.051 104.945 217.389L104.967 218.613C104.967 220.905 104.523 222.953 103.635 224.758C102.761 226.562 101.501 227.959 99.8535 228.947C98.2207 229.936 96.3301 230.43 94.1816 230.43C90.9017 230.43 88.2734 229.341 86.2969 227.164C84.3346 224.973 83.3535 222.058 83.3535 218.42V218.162ZM88.5742 218.613C88.5742 221.005 89.0684 222.882 90.0566 224.242C91.0449 225.589 92.4199 226.262 94.1816 226.262C95.9434 226.262 97.3112 225.574 98.2852 224.199C99.2734 222.824 99.7676 220.812 99.7676 218.162C99.7676 215.813 99.2591 213.951 98.2422 212.576C97.2396 211.201 95.8717 210.514 94.1387 210.514C92.4342 210.514 91.0807 211.194 90.0781 212.555C89.0755 213.901 88.5742 215.921 88.5742 218.613ZM114.227 206.754L114.377 209.439C116.096 207.363 118.352 206.324 121.145 206.324C125.986 206.324 128.449 209.096 128.535 214.639V230H123.314V214.939C123.314 213.464 122.992 212.376 122.348 211.674C121.717 210.958 120.679 210.6 119.232 210.6C117.127 210.6 115.559 211.552 114.527 213.457V230H109.307V206.754H114.227ZM132.961 218.205C132.961 214.596 133.806 211.717 135.496 209.568C137.201 207.406 139.456 206.324 142.264 206.324C144.913 206.324 146.997 207.248 148.516 209.096L148.752 206.754H153.457V229.291C153.457 232.342 152.505 234.748 150.6 236.51C148.709 238.271 146.152 239.152 142.93 239.152C141.225 239.152 139.557 238.794 137.924 238.078C136.305 237.376 135.074 236.452 134.229 235.307L136.699 232.17C138.303 234.075 140.28 235.027 142.629 235.027C144.362 235.027 145.73 234.555 146.732 233.609C147.735 232.678 148.236 231.303 148.236 229.484V227.916C146.732 229.592 144.727 230.43 142.221 230.43C139.499 230.43 137.272 229.348 135.539 227.186C133.82 225.023 132.961 222.029 132.961 218.205ZM138.16 218.656C138.16 220.991 138.633 222.831 139.578 224.178C140.538 225.51 141.863 226.176 143.553 226.176C145.658 226.176 147.219 225.273 148.236 223.469V213.242C147.248 211.48 145.701 210.6 143.596 210.6C141.877 210.6 140.538 211.28 139.578 212.641C138.633 214.001 138.16 216.007 138.16 218.656ZM157.861 218.162C157.861 215.885 158.312 213.837 159.215 212.018C160.117 210.184 161.385 208.781 163.018 207.807C164.65 206.818 166.527 206.324 168.646 206.324C171.783 206.324 174.326 207.334 176.273 209.354C178.236 211.373 179.296 214.051 179.453 217.389L179.475 218.613C179.475 220.905 179.031 222.953 178.143 224.758C177.269 226.562 176.008 227.959 174.361 228.947C172.729 229.936 170.838 230.43 168.689 230.43C165.41 230.43 162.781 229.341 160.805 227.164C158.842 224.973 157.861 222.058 157.861 218.42V218.162ZM163.082 218.613C163.082 221.005 163.576 222.882 164.564 224.242C165.553 225.589 166.928 226.262 168.689 226.262C170.451 226.262 171.819 225.574 172.793 224.199C173.781 222.824 174.275 220.812 174.275 218.162C174.275 215.813 173.767 213.951 172.75 212.576C171.747 211.201 170.38 210.514 168.646 210.514C166.942 210.514 165.589 211.194 164.586 212.555C163.583 213.901 163.082 215.921 163.082 218.613ZM182.912 218.162C182.912 215.885 183.363 213.837 184.266 212.018C185.168 210.184 186.436 208.781 188.068 207.807C189.701 206.818 191.577 206.324 193.697 206.324C196.834 206.324 199.376 207.334 201.324 209.354C203.286 211.373 204.346 214.051 204.504 217.389L204.525 218.613C204.525 220.905 204.081 222.953 203.193 224.758C202.32 226.562 201.059 227.959 199.412 228.947C197.779 229.936 195.889 230.43 193.74 230.43C190.46 230.43 187.832 229.341 185.855 227.164C183.893 224.973 182.912 222.058 182.912 218.42V218.162ZM188.133 218.613C188.133 221.005 188.627 222.882 189.615 224.242C190.604 225.589 191.979 226.262 193.74 226.262C195.502 226.262 196.87 225.574 197.844 224.199C198.832 222.824 199.326 220.812 199.326 218.162C199.326 215.813 198.818 213.951 197.801 212.576C196.798 211.201 195.43 210.514 193.697 210.514C191.993 210.514 190.639 211.194 189.637 212.555C188.634 213.901 188.133 215.921 188.133 218.613ZM221.971 223.684C221.971 222.753 221.584 222.044 220.811 221.557C220.051 221.07 218.784 220.64 217.008 220.268C215.232 219.895 213.749 219.423 212.561 218.85C209.954 217.589 208.65 215.763 208.65 213.371C208.65 211.366 209.495 209.69 211.186 208.344C212.876 206.997 215.024 206.324 217.631 206.324C220.41 206.324 222.651 207.012 224.355 208.387C226.074 209.762 226.934 211.545 226.934 213.736H221.713C221.713 212.734 221.34 211.903 220.596 211.244C219.851 210.571 218.863 210.234 217.631 210.234C216.485 210.234 215.547 210.499 214.816 211.029C214.1 211.559 213.742 212.268 213.742 213.156C213.742 213.958 214.079 214.581 214.752 215.025C215.425 215.469 216.786 215.921 218.834 216.379C220.882 216.823 222.486 217.36 223.646 217.99C224.821 218.606 225.688 219.351 226.246 220.225C226.819 221.098 227.105 222.158 227.105 223.404C227.105 225.495 226.239 227.193 224.506 228.496C222.773 229.785 220.503 230.43 217.695 230.43C215.79 230.43 214.093 230.086 212.604 229.398C211.114 228.711 209.954 227.766 209.123 226.562C208.292 225.359 207.877 224.063 207.877 222.674H212.947C213.019 223.906 213.484 224.858 214.344 225.531C215.203 226.19 216.342 226.52 217.76 226.52C219.135 226.52 220.18 226.262 220.896 225.746C221.613 225.216 221.971 224.529 221.971 223.684ZM241.908 230.43C238.6 230.43 235.914 229.391 233.852 227.314C231.803 225.223 230.779 222.445 230.779 218.979V218.334C230.779 216.014 231.223 213.944 232.111 212.125C233.014 210.292 234.274 208.867 235.893 207.85C237.511 206.833 239.316 206.324 241.307 206.324C244.472 206.324 246.914 207.334 248.633 209.354C250.366 211.373 251.232 214.23 251.232 217.926V220.031H236.043C236.201 221.951 236.838 223.469 237.955 224.586C239.087 225.703 240.505 226.262 242.209 226.262C244.601 226.262 246.549 225.295 248.053 223.361L250.867 226.047C249.936 227.436 248.69 228.518 247.129 229.291C245.582 230.05 243.842 230.43 241.908 230.43ZM241.285 210.514C239.853 210.514 238.693 211.015 237.805 212.018C236.931 213.02 236.372 214.417 236.129 216.207H246.076V215.82C245.962 214.073 245.496 212.755 244.68 211.867C243.863 210.965 242.732 210.514 241.285 210.514Z" fill="white"/>
</g>
<path d="M44.3384 112.169L44.499 114.762C46.2432 112.727 48.6299 111.71 51.6592 111.71C54.9792 111.71 57.2511 112.98 58.4751 115.52C60.2804 112.98 62.8201 111.71 66.0942 111.71C68.8328 111.71 70.8677 112.467 72.1987 113.982C73.5451 115.497 74.2336 117.73 74.2642 120.683V137H68.6875V120.844C68.6875 119.268 68.3433 118.113 67.6548 117.378C66.9663 116.644 65.8265 116.277 64.2354 116.277C62.9655 116.277 61.9251 116.621 61.1143 117.31C60.3187 117.983 59.7603 118.87 59.439 119.972L59.4619 137H53.8853V120.66C53.8088 117.738 52.3171 116.277 49.4102 116.277C47.1764 116.277 45.5929 117.187 44.6597 119.008V137H39.083V112.169H44.3384ZM78.9458 124.355C78.9458 121.922 79.4277 119.735 80.3916 117.792C81.3555 115.833 82.7095 114.334 84.4536 113.293C86.1978 112.238 88.202 111.71 90.4663 111.71C93.8169 111.71 96.5326 112.789 98.6133 114.946C100.709 117.103 101.841 119.964 102.01 123.529L102.033 124.837C102.033 127.285 101.558 129.473 100.61 131.4C99.6766 133.328 98.3302 134.82 96.5708 135.875C94.8267 136.931 92.8071 137.459 90.5122 137.459C87.0086 137.459 84.2012 136.296 82.0898 133.971C79.9938 131.63 78.9458 128.516 78.9458 124.63V124.355ZM84.5225 124.837C84.5225 127.392 85.0503 129.396 86.106 130.85C87.1616 132.288 88.6304 133.007 90.5122 133.007C92.394 133.007 93.8551 132.272 94.8955 130.804C95.9512 129.335 96.479 127.185 96.479 124.355C96.479 121.846 95.9359 119.857 94.8496 118.388C93.7786 116.919 92.3175 116.185 90.4663 116.185C88.6457 116.185 87.1999 116.912 86.1289 118.365C85.0579 119.803 84.5225 121.961 84.5225 124.837ZM111.924 112.169L112.084 115.038C113.92 112.819 116.33 111.71 119.313 111.71C124.485 111.71 127.116 114.67 127.208 120.591V137H121.631V120.913C121.631 119.337 121.287 118.174 120.599 117.424C119.925 116.659 118.816 116.277 117.271 116.277C115.022 116.277 113.347 117.294 112.245 119.329V137H106.668V112.169H111.924ZM131.936 124.401C131.936 120.545 132.838 117.47 134.644 115.175C136.464 112.865 138.874 111.71 141.873 111.71C144.703 111.71 146.929 112.697 148.551 114.67L148.803 112.169H153.829V136.243C153.829 139.501 152.812 142.072 150.777 143.954C148.757 145.835 146.026 146.776 142.584 146.776C140.763 146.776 138.981 146.394 137.237 145.629C135.508 144.879 134.192 143.892 133.29 142.668L135.929 139.318C137.642 141.353 139.754 142.37 142.263 142.37C144.114 142.37 145.575 141.865 146.646 140.855C147.717 139.861 148.252 138.392 148.252 136.449V134.774C146.646 136.564 144.504 137.459 141.827 137.459C138.92 137.459 136.541 136.304 134.689 133.994C132.854 131.683 131.936 128.486 131.936 124.401ZM137.489 124.883C137.489 127.377 137.994 129.343 139.004 130.781C140.029 132.204 141.444 132.915 143.25 132.915C145.499 132.915 147.166 131.951 148.252 130.023V119.1C147.197 117.218 145.544 116.277 143.295 116.277C141.459 116.277 140.029 117.004 139.004 118.457C137.994 119.91 137.489 122.052 137.489 124.883ZM158.534 124.355C158.534 121.922 159.016 119.735 159.979 117.792C160.943 115.833 162.297 114.334 164.042 113.293C165.786 112.238 167.79 111.71 170.054 111.71C173.405 111.71 176.12 112.789 178.201 114.946C180.297 117.103 181.429 119.964 181.598 123.529L181.621 124.837C181.621 127.285 181.146 129.473 180.198 131.4C179.264 133.328 177.918 134.82 176.159 135.875C174.415 136.931 172.395 137.459 170.1 137.459C166.597 137.459 163.789 136.296 161.678 133.971C159.582 131.63 158.534 128.516 158.534 124.63V124.355ZM164.11 124.837C164.11 127.392 164.638 129.396 165.694 130.85C166.75 132.288 168.218 133.007 170.1 133.007C171.982 133.007 173.443 132.272 174.483 130.804C175.539 129.335 176.067 127.185 176.067 124.355C176.067 121.846 175.524 119.857 174.438 118.388C173.367 116.919 171.905 116.185 170.054 116.185C168.234 116.185 166.788 116.912 165.717 118.365C164.646 119.803 164.11 121.961 164.11 124.837ZM185.292 124.355C185.292 121.922 185.774 119.735 186.738 117.792C187.702 115.833 189.056 114.334 190.8 113.293C192.544 112.238 194.549 111.71 196.813 111.71C200.164 111.71 202.879 112.789 204.96 114.946C207.056 117.103 208.188 119.964 208.356 123.529L208.379 124.837C208.379 127.285 207.905 129.473 206.957 131.4C206.023 133.328 204.677 134.82 202.917 135.875C201.173 136.931 199.154 137.459 196.859 137.459C193.355 137.459 190.548 136.296 188.437 133.971C186.34 131.63 185.292 128.516 185.292 124.63V124.355ZM190.869 124.837C190.869 127.392 191.397 129.396 192.453 130.85C193.508 132.288 194.977 133.007 196.859 133.007C198.741 133.007 200.202 132.272 201.242 130.804C202.298 129.335 202.826 127.185 202.826 124.355C202.826 121.846 202.283 119.857 201.196 118.388C200.125 116.919 198.664 116.185 196.813 116.185C194.992 116.185 193.547 116.912 192.476 118.365C191.405 119.803 190.869 121.961 190.869 124.837ZM227.014 130.253C227.014 129.258 226.601 128.501 225.775 127.981C224.964 127.461 223.61 127.002 221.713 126.604C219.816 126.206 218.232 125.701 216.962 125.089C214.178 123.743 212.786 121.792 212.786 119.237C212.786 117.095 213.688 115.305 215.494 113.867C217.299 112.429 219.594 111.71 222.378 111.71C225.347 111.71 227.741 112.444 229.562 113.913C231.397 115.382 232.315 117.287 232.315 119.627H226.739C226.739 118.556 226.341 117.669 225.545 116.965C224.75 116.246 223.694 115.887 222.378 115.887C221.154 115.887 220.152 116.17 219.372 116.736C218.607 117.302 218.225 118.059 218.225 119.008C218.225 119.865 218.584 120.53 219.303 121.004C220.022 121.479 221.476 121.961 223.664 122.45C225.851 122.924 227.565 123.498 228.804 124.171C230.059 124.829 230.984 125.625 231.581 126.558C232.193 127.491 232.499 128.624 232.499 129.955C232.499 132.188 231.573 134.001 229.722 135.394C227.871 136.771 225.446 137.459 222.447 137.459C220.412 137.459 218.599 137.092 217.008 136.357C215.417 135.623 214.178 134.613 213.291 133.328C212.403 132.043 211.959 130.658 211.959 129.174H217.375C217.452 130.49 217.949 131.507 218.867 132.227C219.785 132.93 221.001 133.282 222.516 133.282C223.985 133.282 225.102 133.007 225.867 132.456C226.632 131.89 227.014 131.156 227.014 130.253ZM248.311 137.459C244.777 137.459 241.908 136.35 239.705 134.131C237.517 131.898 236.423 128.93 236.423 125.227V124.539C236.423 122.06 236.898 119.849 237.846 117.906C238.81 115.948 240.156 114.426 241.885 113.339C243.614 112.253 245.542 111.71 247.668 111.71C251.05 111.71 253.658 112.789 255.494 114.946C257.345 117.103 258.271 120.155 258.271 124.103V126.352H242.046C242.214 128.402 242.895 130.023 244.088 131.217C245.297 132.41 246.812 133.007 248.632 133.007C251.187 133.007 253.268 131.974 254.875 129.909L257.881 132.777C256.886 134.261 255.555 135.417 253.888 136.243C252.235 137.054 250.376 137.459 248.311 137.459ZM247.646 116.185C246.116 116.185 244.876 116.721 243.928 117.792C242.994 118.862 242.398 120.354 242.138 122.267H252.763V121.854C252.641 119.987 252.144 118.579 251.271 117.631C250.399 116.667 249.191 116.185 247.646 116.185Z" fill="white"/>
<defs>
<filter id="filter0_d" x="0" y="0" width="296" height="296" filterUnits="userSpaceOnUse" color-interpolation-filters="sRGB">
<feFlood flood-opacity="0" result="BackgroundImageFix"/>
<feColorMatrix in="SourceAlpha" type="matrix" values="0 0 0 0 0 0 0 0 0 0 0 0 0 0 0 0 0 0 127 0"/>
<feOffset dy="11"/>
<feGaussianBlur stdDeviation="10"/>
<feColorMatrix type="matrix" values="0 0 0 0 0 0 0 0 0 0 0 0 0 0 0 0 0 0 0.25 0"/>
<feBlend mode="normal" in2="BackgroundImageFix" result="effect1_dropShadow"/>
<feBlend mode="normal" in="SourceGraphic" in2="effect1_dropShadow" result="shape"/>
</filter>
</defs>
</svg>
