<svg width="296" height="296" viewBox="0 0 296 296" fill="none" xmlns="http://www.w3.org/2000/svg">
<g filter="url(#filter0_d)">
<rect x="20" y="9" width="256" height="256" rx="10" fill="#C4C4C4"/>
<path d="M68.4004 204.301L68.6055 207.963C70.9492 205.131 74.0254 203.715 77.834 203.715C84.4355 203.715 87.7949 207.494 87.9121 215.053V236H80.793V215.463C80.793 213.451 80.3535 211.967 79.4746 211.01C78.6152 210.033 77.1992 209.545 75.2266 209.545C72.3555 209.545 70.2168 210.844 68.8105 213.441V236H61.6914V204.301H68.4004ZM93.8594 219.857C93.8594 216.752 94.4746 213.959 95.7051 211.479C96.9355 208.979 98.6641 207.064 100.891 205.736C103.117 204.389 105.676 203.715 108.566 203.715C112.844 203.715 116.311 205.092 118.967 207.846C121.643 210.6 123.088 214.252 123.303 218.803L123.332 220.473C123.332 223.598 122.727 226.391 121.516 228.852C120.324 231.312 118.605 233.217 116.359 234.564C114.133 235.912 111.555 236.586 108.625 236.586C104.152 236.586 100.568 235.102 97.873 232.133C95.1973 229.145 93.8594 225.17 93.8594 220.209V219.857ZM100.979 220.473C100.979 223.734 101.652 226.293 103 228.148C104.348 229.984 106.223 230.902 108.625 230.902C111.027 230.902 112.893 229.965 114.221 228.09C115.568 226.215 116.242 223.471 116.242 219.857C116.242 216.654 115.549 214.115 114.162 212.24C112.795 210.365 110.93 209.428 108.566 209.428C106.242 209.428 104.396 210.355 103.029 212.211C101.662 214.047 100.979 216.801 100.979 220.473ZM128.02 219.916C128.02 215.033 129.152 211.117 131.418 208.168C133.684 205.199 136.721 203.715 140.529 203.715C143.889 203.715 146.604 204.887 148.674 207.23V191H155.793V236H149.348L148.996 232.719C146.867 235.297 144.025 236.586 140.471 236.586C136.76 236.586 133.752 235.092 131.447 232.104C129.162 229.115 128.02 225.053 128.02 219.916ZM135.139 220.531C135.139 223.754 135.754 226.273 136.984 228.09C138.234 229.887 140.002 230.785 142.287 230.785C145.197 230.785 147.326 229.486 148.674 226.889V213.354C147.365 210.814 145.256 209.545 142.346 209.545C140.041 209.545 138.264 210.463 137.014 212.299C135.764 214.115 135.139 216.859 135.139 220.531ZM177.18 236.586C172.668 236.586 169.006 235.17 166.193 232.338C163.4 229.486 162.004 225.697 162.004 220.971V220.092C162.004 216.928 162.609 214.105 163.82 211.625C165.051 209.125 166.77 207.182 168.977 205.795C171.184 204.408 173.645 203.715 176.359 203.715C180.676 203.715 184.006 205.092 186.35 207.846C188.713 210.6 189.895 214.496 189.895 219.535V222.406H169.182C169.396 225.023 170.266 227.094 171.789 228.617C173.332 230.141 175.266 230.902 177.59 230.902C180.852 230.902 183.508 229.584 185.559 226.947L189.396 230.609C188.127 232.504 186.428 233.979 184.299 235.033C182.189 236.068 179.816 236.586 177.18 236.586ZM176.33 209.428C174.377 209.428 172.795 210.111 171.584 211.479C170.393 212.846 169.631 214.75 169.299 217.191H182.863V216.664C182.707 214.281 182.072 212.484 180.959 211.273C179.846 210.043 178.303 209.428 176.33 209.428ZM202.873 204.301V238.812C202.873 242.055 202.062 244.525 200.441 246.225C198.84 247.943 196.486 248.803 193.381 248.803C192.072 248.803 190.812 248.637 189.602 248.305V242.68C190.344 242.855 191.184 242.943 192.121 242.943C194.484 242.943 195.695 241.654 195.754 239.076V204.301H202.873ZM195.139 196.068C195.139 194.975 195.48 194.066 196.164 193.344C196.867 192.621 197.863 192.26 199.152 192.26C200.441 192.26 201.438 192.621 202.141 193.344C202.844 194.066 203.195 194.975 203.195 196.068C203.195 197.143 202.844 198.041 202.141 198.764C201.438 199.467 200.441 199.818 199.152 199.818C197.863 199.818 196.867 199.467 196.164 198.764C195.48 198.041 195.139 197.143 195.139 196.068ZM228.273 227.387C228.273 226.117 227.746 225.15 226.691 224.486C225.656 223.822 223.928 223.236 221.506 222.729C219.084 222.221 217.062 221.576 215.441 220.795C211.887 219.076 210.109 216.586 210.109 213.324C210.109 210.59 211.262 208.305 213.566 206.469C215.871 204.633 218.801 203.715 222.355 203.715C226.145 203.715 229.201 204.652 231.525 206.527C233.869 208.402 235.041 210.834 235.041 213.822H227.922C227.922 212.455 227.414 211.322 226.398 210.424C225.383 209.506 224.035 209.047 222.355 209.047C220.793 209.047 219.514 209.408 218.518 210.131C217.541 210.854 217.053 211.82 217.053 213.031C217.053 214.125 217.512 214.975 218.43 215.58C219.348 216.186 221.203 216.801 223.996 217.426C226.789 218.031 228.977 218.764 230.559 219.623C232.16 220.463 233.342 221.479 234.104 222.67C234.885 223.861 235.275 225.307 235.275 227.006C235.275 229.857 234.094 232.172 231.73 233.949C229.367 235.707 226.271 236.586 222.443 236.586C219.846 236.586 217.531 236.117 215.5 235.18C213.469 234.242 211.887 232.953 210.754 231.312C209.621 229.672 209.055 227.904 209.055 226.01H215.969C216.066 227.689 216.701 228.988 217.873 229.906C219.045 230.805 220.598 231.254 222.531 231.254C224.406 231.254 225.832 230.902 226.809 230.199C227.785 229.477 228.273 228.539 228.273 227.387Z" fill="white"/>
</g>
<path d="M147.972 171C146.113 171 144.226 170.521 142.588 169.617L125.465 159.912C122.911 158.529 124.16 158.051 124.993 157.785C128.406 156.641 129.1 156.402 132.736 154.408C133.124 154.195 133.624 154.275 134.013 154.514L147.167 161.986C147.639 162.252 148.305 162.252 148.749 161.986L200.009 133.641C200.481 133.375 200.786 132.843 200.786 132.312V75.6219C200.786 75.0635 200.481 74.5583 199.981 74.2658L148.749 45.9475C148.278 45.6816 147.639 45.6816 147.167 45.9475L95.9633 74.2924C95.4637 74.5583 95.1585 75.0901 95.1585 75.6485V132.312C95.1585 132.843 95.4637 133.375 95.9633 133.615L110.006 141.379C117.638 145.022 122.301 140.741 122.301 136.406V80.4613C122.301 79.6636 122.967 79.052 123.799 79.052H130.294C131.098 79.052 131.792 79.6636 131.792 80.4613V136.433C131.792 146.165 126.242 151.749 116.611 151.749C113.642 151.749 111.311 151.749 104.816 148.664L91.3841 141.246C88.0537 139.411 86 135.981 86 132.285V75.6219C86 71.9525 88.0537 68.4958 91.3841 66.6611L142.588 38.3162C145.835 36.5613 150.137 36.5613 153.356 38.3162L204.616 66.6877C207.946 68.5224 210 71.9525 210 75.6485V132.312C210 135.981 207.946 139.411 204.616 141.272L153.356 169.617C151.719 170.521 149.859 171 147.972 171ZM189.352 115.135C189.352 104.525 181.859 101.707 166.123 99.7124C150.192 97.6915 148.583 96.6545 148.583 93.0915C148.583 90.14 149.943 86.2047 161.738 86.2047C172.256 86.2047 176.141 88.3851 177.751 95.1921C177.89 95.8302 178.5 96.3089 179.194 96.3089H185.855C186.271 96.3089 186.66 96.1493 186.937 95.8568C187.215 95.5643 187.354 95.1655 187.326 94.7666C186.299 83.0405 178.167 77.5895 161.738 77.5895C147.112 77.5895 138.397 83.4925 138.397 93.4106C138.397 104.153 147.084 107.131 161.099 108.46C177.89 110.029 179.194 112.396 179.194 115.56C179.194 121.038 174.587 123.377 163.791 123.377C150.22 123.377 147.251 120.107 146.252 113.645C146.141 112.954 145.53 112.449 144.781 112.449H138.148C137.315 112.449 136.677 113.087 136.677 113.858C136.677 122.128 141.367 131.993 163.819 131.993C180.027 131.966 189.352 125.824 189.352 115.135V115.135Z" fill="white"/>
<defs>
<filter id="filter0_d" x="0" y="0" width="296" height="296" filterUnits="userSpaceOnUse" color-interpolation-filters="sRGB">
<feFlood flood-opacity="0" result="BackgroundImageFix"/>
<feColorMatrix in="SourceAlpha" type="matrix" values="0 0 0 0 0 0 0 0 0 0 0 0 0 0 0 0 0 0 127 0"/>
<feOffset dy="11"/>
<feGaussianBlur stdDeviation="10"/>
<feColorMatrix type="matrix" values="0 0 0 0 0 0 0 0 0 0 0 0 0 0 0 0 0 0 0.25 0"/>
<feBlend mode="normal" in2="BackgroundImageFix" result="effect1_dropShadow"/>
<feBlend mode="normal" in="SourceGraphic" in2="effect1_dropShadow" result="shape"/>
</filter>
</defs>
</svg>
