<svg width="296" height="296" viewBox="0 0 296 296" fill="none" xmlns="http://www.w3.org/2000/svg">
<g filter="url(#filter0_d)">
<rect x="20" y="9" width="256" height="256" rx="10" fill="#C4C4C4"/>
<path d="M99.0254 38.6514L92.873 42.46L89.0156 65.7998L93.6787 69.6084H79.7139L82.2285 67.0938L79.3232 48.1973L75.417 68.1436L79.4697 71.3418L65.3828 70.6094L70.1191 66.9473L63.2344 42.1914L57.668 39.457L74.9287 36.5518L70.0215 40.1406L73.0244 63.3096L77.1748 46.708L73.8789 44.3398L86.623 42.7041L82.375 46.0977L85.4268 61.6006L89.5283 41.2881L84.8652 37.6504L99.0254 38.6514ZM104.372 62.04C104.584 62.9515 104.868 63.8467 105.227 64.7256C105.585 65.5882 106.024 66.3613 106.545 67.0449C107.066 67.7285 107.668 68.2819 108.352 68.7051C109.035 69.1283 109.808 69.3398 110.671 69.3398C111.81 69.3398 112.803 69.1038 113.649 68.6318C114.496 68.1598 115.188 67.5658 115.725 66.8496C116.262 66.1172 116.636 65.3197 116.848 64.457C117.059 63.5781 117.1 62.7399 116.97 61.9424C117.425 62.1214 117.8 62.3574 118.093 62.6504C118.402 62.9434 118.638 63.2689 118.801 63.627C118.98 63.9688 119.102 64.3268 119.167 64.7012C119.232 65.0592 119.265 65.4092 119.265 65.751C119.265 66.5322 119.037 67.2891 118.581 68.0215C118.125 68.7376 117.482 69.3805 116.652 69.9502C115.839 70.5036 114.87 70.9512 113.747 71.293C112.624 71.6348 111.395 71.8057 110.061 71.8057C108.27 71.8057 106.667 71.4557 105.251 70.7559C103.851 70.056 102.663 69.112 101.687 67.9238C100.71 66.7194 99.9613 65.3115 99.4404 63.7002C98.9196 62.0889 98.6592 60.3717 98.6592 58.5488C98.6592 56.6934 98.9196 54.9844 99.4404 53.4219C99.9613 51.8431 100.726 50.5003 101.735 49.3936C102.761 48.2868 104.014 47.4486 105.495 46.8789C106.976 46.3092 108.685 46.0814 110.622 46.1953C111.957 46.293 113.186 46.6755 114.309 47.3428C115.432 48.0101 116.408 48.8727 117.238 49.9307C118.085 50.9723 118.76 52.1686 119.265 53.5195C119.785 54.8704 120.103 56.2783 120.217 57.7432L104.372 62.04ZM103.908 58.1094C103.908 58.3372 103.908 58.5651 103.908 58.793C103.908 59.0046 103.924 59.2243 103.957 59.4521L114.675 55.5459C114.317 54.374 113.91 53.373 113.454 52.543C113.015 51.6966 112.551 51.0049 112.062 50.4678C111.574 49.9307 111.078 49.54 110.573 49.2959C110.085 49.0355 109.613 48.9053 109.157 48.9053C108.474 48.9053 107.871 49.0355 107.351 49.2959C106.83 49.5563 106.374 49.9144 105.983 50.3701C105.609 50.8096 105.284 51.3304 105.007 51.9326C104.746 52.5348 104.535 53.1777 104.372 53.8613C104.209 54.5449 104.087 55.2529 104.006 55.9854C103.941 56.7015 103.908 57.4095 103.908 58.1094ZM144.045 55.79C144.045 56.6527 143.996 57.5804 143.898 58.5732C143.801 59.5661 143.654 60.5752 143.459 61.6006C143.28 62.626 143.06 63.6351 142.8 64.6279C142.556 65.6045 142.287 66.5078 141.994 67.3379L147.194 71L137.99 70.6094L138.552 67.6064C137.575 68.8271 136.444 69.763 135.158 70.4141C133.889 71.0488 132.416 71.4313 130.739 71.5615C129.372 71.6592 128.176 71.5615 127.15 71.2686C126.141 70.9919 125.295 70.5605 124.611 69.9746C123.944 69.3724 123.448 68.64 123.122 67.7773C122.797 66.8984 122.634 65.9219 122.634 64.8477C122.634 63.8548 122.878 62.8945 123.366 61.9668C123.854 61.0228 124.554 60.1927 125.466 59.4766C126.394 58.7604 127.525 58.1908 128.859 57.7676C130.194 57.3281 131.708 57.1084 133.4 57.1084C134.182 57.1084 135.077 57.1816 136.086 57.3281C137.111 57.4746 138.08 57.7839 138.991 58.2559C138.91 57.263 138.755 56.2539 138.527 55.2285C138.316 54.1868 137.998 53.2428 137.575 52.3965C137.152 51.5501 136.599 50.8665 135.915 50.3457C135.248 49.8086 134.41 49.54 133.4 49.54C132.538 49.54 131.7 49.7191 130.886 50.0771C130.072 50.4352 129.307 50.9479 128.591 51.6152C127.891 52.2826 127.256 53.0964 126.687 54.0566C126.117 55.0169 125.637 56.0993 125.246 57.3037L123.195 45.3408L126.296 50.1016C127.061 49.1576 127.834 48.4089 128.615 47.8555C129.396 47.2858 130.17 46.8545 130.935 46.5615C131.716 46.2523 132.465 46.0488 133.181 45.9512C133.913 45.8535 134.613 45.8047 135.28 45.8047C136.534 45.8698 137.689 46.1302 138.747 46.5859C139.821 47.0254 140.749 47.6683 141.53 48.5146C142.312 49.3447 142.922 50.3701 143.361 51.5908C143.817 52.8115 144.045 54.2113 144.045 55.79ZM138.991 63.6025C139.024 63.1468 139.048 62.7074 139.064 62.2842C139.081 61.861 139.089 61.446 139.089 61.0391V60.7461C138.503 60.5182 137.909 60.3473 137.307 60.2334C136.721 60.1032 136.175 60.0137 135.671 59.9648C135.166 59.8997 134.735 59.8672 134.377 59.8672C134.035 59.8509 133.807 59.8428 133.693 59.8428C132.766 59.8753 131.96 60.0462 131.276 60.3555C130.593 60.6647 130.023 61.0553 129.567 61.5273C129.128 61.9831 128.794 62.4958 128.566 63.0654C128.355 63.6351 128.249 64.1966 128.249 64.75C128.249 66.0033 128.55 66.9554 129.152 67.6064C129.771 68.2412 130.666 68.5586 131.838 68.5586C132.619 68.5586 133.36 68.4202 134.06 68.1436C134.759 67.8669 135.41 67.5007 136.013 67.0449C136.631 66.5729 137.185 66.0439 137.673 65.458C138.177 64.8558 138.617 64.2373 138.991 63.6025ZM149.929 60.3066C149.929 58.7767 150.083 57.2549 150.393 55.7412C150.718 54.2113 151.068 52.8115 151.442 51.542L147.219 51.8105L159.133 38.7979C158.189 41.7764 157.424 44.4619 156.838 46.8545L166.335 47.6602L165.09 50.5898L155.886 51.249C155.658 52.4372 155.479 53.4951 155.349 54.4229C155.235 55.3343 155.137 56.1074 155.056 56.7422C154.974 57.4909 154.917 58.1419 154.885 58.6953C154.885 60.3229 154.982 61.7878 155.178 63.0898C155.373 64.3919 155.674 65.5068 156.081 66.4346C156.504 67.346 157.033 68.054 157.668 68.5586C158.319 69.0469 159.092 69.291 159.987 69.291C160.817 69.291 161.509 69.1283 162.062 68.8027C162.632 68.4609 163.088 68.0296 163.43 67.5088C163.771 66.9717 164.016 66.3776 164.162 65.7266C164.309 65.0592 164.382 64.4001 164.382 63.749C164.382 63.1468 164.333 62.5609 164.235 61.9912C164.935 62.3493 165.464 62.9271 165.822 63.7246C166.197 64.5059 166.384 65.3604 166.384 66.2881C166.384 67.2484 166.221 68.0947 165.896 68.8271C165.586 69.5596 165.155 70.1781 164.602 70.6826C164.048 71.1709 163.397 71.5452 162.648 71.8057C161.9 72.0661 161.094 72.1963 160.231 72.1963C159.711 72.1963 159.092 72.1393 158.376 72.0254C157.676 71.9115 156.944 71.6999 156.179 71.3906C155.414 71.0977 154.657 70.6745 153.908 70.1211C153.16 69.5677 152.492 68.8516 151.906 67.9727C151.32 67.0938 150.84 66.0277 150.466 64.7744C150.108 63.5049 149.929 62.0156 149.929 60.3066ZM165.603 70.707L169.362 67.6553L171.096 40.458L165.651 37.748L174.294 36.3076L174.392 50.0527C174.945 49.2552 175.555 48.6042 176.223 48.0996C176.89 47.5788 177.541 47.1719 178.176 46.8789C178.827 46.5859 179.421 46.3825 179.958 46.2686C180.511 46.1546 180.943 46.0977 181.252 46.0977C182.782 46.0977 184.076 46.3743 185.134 46.9277C186.192 47.4648 187.046 48.2135 187.697 49.1738C188.365 50.1341 188.845 51.2734 189.138 52.5918C189.447 53.8939 189.602 55.3099 189.602 56.8398C189.602 57.6862 189.528 58.5895 189.382 59.5498C189.252 60.5101 189.073 61.4785 188.845 62.4551C188.617 63.4154 188.356 64.3512 188.063 65.2627C187.787 66.1579 187.502 66.9717 187.209 67.7041L192.043 70.3896L179.396 71.708L184.743 66.8496C184.971 65.6452 185.134 64.514 185.231 63.4561C185.345 62.3981 185.402 61.4134 185.402 60.502C185.402 60.0462 185.37 59.4928 185.305 58.8418C185.256 58.1908 185.15 57.5153 184.987 56.8154C184.825 56.0993 184.605 55.3913 184.328 54.6914C184.051 53.9915 183.685 53.3649 183.229 52.8115C182.79 52.2581 182.253 51.8105 181.618 51.4688C181 51.127 180.259 50.9561 179.396 50.9561C178.55 50.9561 177.679 51.1432 176.784 51.5176C175.905 51.8919 175.108 52.486 174.392 53.2998L174.562 67.9971L177.81 70.707H165.603ZM199.294 62.04C199.506 62.9515 199.79 63.8467 200.148 64.7256C200.507 65.5882 200.946 66.3613 201.467 67.0449C201.988 67.7285 202.59 68.2819 203.273 68.7051C203.957 69.1283 204.73 69.3398 205.593 69.3398C206.732 69.3398 207.725 69.1038 208.571 68.6318C209.418 68.1598 210.109 67.5658 210.646 66.8496C211.184 66.1172 211.558 65.3197 211.77 64.457C211.981 63.5781 212.022 62.7399 211.892 61.9424C212.347 62.1214 212.722 62.3574 213.015 62.6504C213.324 62.9434 213.56 63.2689 213.723 63.627C213.902 63.9688 214.024 64.3268 214.089 64.7012C214.154 65.0592 214.187 65.4092 214.187 65.751C214.187 66.5322 213.959 67.2891 213.503 68.0215C213.047 68.7376 212.404 69.3805 211.574 69.9502C210.76 70.5036 209.792 70.9512 208.669 71.293C207.546 71.6348 206.317 71.8057 204.982 71.8057C203.192 71.8057 201.589 71.4557 200.173 70.7559C198.773 70.056 197.585 69.112 196.608 67.9238C195.632 66.7194 194.883 65.3115 194.362 63.7002C193.841 62.0889 193.581 60.3717 193.581 58.5488C193.581 56.6934 193.841 54.9844 194.362 53.4219C194.883 51.8431 195.648 50.5003 196.657 49.3936C197.683 48.2868 198.936 47.4486 200.417 46.8789C201.898 46.3092 203.607 46.0814 205.544 46.1953C206.879 46.293 208.107 46.6755 209.23 47.3428C210.354 48.0101 211.33 48.8727 212.16 49.9307C213.007 50.9723 213.682 52.1686 214.187 53.5195C214.707 54.8704 215.025 56.2783 215.139 57.7432L199.294 62.04ZM198.83 58.1094C198.83 58.3372 198.83 58.5651 198.83 58.793C198.83 59.0046 198.846 59.2243 198.879 59.4521L209.597 55.5459C209.239 54.374 208.832 53.373 208.376 52.543C207.937 51.6966 207.473 51.0049 206.984 50.4678C206.496 49.9307 206 49.54 205.495 49.2959C205.007 49.0355 204.535 48.9053 204.079 48.9053C203.396 48.9053 202.793 49.0355 202.272 49.2959C201.752 49.5563 201.296 49.9144 200.905 50.3701C200.531 50.8096 200.205 51.3304 199.929 51.9326C199.668 52.5348 199.457 53.1777 199.294 53.8613C199.131 54.5449 199.009 55.2529 198.928 55.9854C198.863 56.7015 198.83 57.4095 198.83 58.1094ZM234.572 54.3496C234.426 53.7474 234.214 53.2347 233.938 52.8115C233.677 52.3883 233.376 52.0384 233.034 51.7617C232.709 51.4688 232.359 51.249 231.984 51.1025C231.61 50.9398 231.236 50.8177 230.861 50.7363C229.982 50.5573 229.047 50.5654 228.054 50.7607C227.712 50.8747 227.346 51.0537 226.955 51.2979C226.613 51.5257 226.223 51.835 225.783 52.2256C225.344 52.5999 224.872 53.1045 224.367 53.7393L224.807 67.8994L229.201 70.0967L216.262 71.2441L219.606 67.8506L220.974 50.8584L215.773 48.4902L224.172 46.9033L224.27 49.9551C224.839 49.2715 225.425 48.71 226.027 48.2705C226.63 47.8311 227.175 47.473 227.663 47.1963C228.233 46.887 228.786 46.651 229.323 46.4883C230.3 46.2604 231.293 46.1709 232.302 46.2197C232.725 46.236 233.164 46.2848 233.62 46.3662C234.092 46.4476 234.564 46.5778 235.036 46.7568C235.524 46.9196 235.996 47.1475 236.452 47.4404C236.908 47.7171 237.347 48.0671 237.771 48.4902L234.572 54.3496ZM105.568 119.308C105.129 121.537 104.567 123.377 103.884 124.825C103.2 126.257 102.508 127.389 101.809 128.219C101.109 129.049 100.45 129.627 99.8311 129.952C99.2288 130.278 98.7731 130.44 98.4639 130.44C97.9756 130.44 97.349 130.229 96.584 129.806C95.819 129.382 94.9727 128.837 94.0449 128.17C93.1335 127.503 92.1813 126.754 91.1885 125.924C90.2119 125.077 89.2679 124.239 88.3564 123.409C87.445 122.579 86.6068 121.798 85.8418 121.065C85.0768 120.333 84.4583 119.731 83.9863 119.259L84.1816 125.289L89.333 128.146L73.8301 129.244L79.0303 124.459L79.9336 99.8984L73.5859 96.8467C76.7598 96.6676 79.4535 96.5374 81.667 96.4561C83.8805 96.3584 85.7116 96.2933 87.1602 96.2607C88.6087 96.2282 89.7236 96.2119 90.5049 96.2119C91.2861 96.2119 91.8395 96.2119 92.165 96.2119C92.8649 96.2119 93.6217 96.277 94.4355 96.4072C95.2656 96.5212 96.0876 96.7246 96.9014 97.0176C97.7152 97.2943 98.5046 97.6523 99.2695 98.0918C100.035 98.5312 100.71 99.0684 101.296 99.7031C101.882 100.338 102.346 101.078 102.688 101.925C103.046 102.755 103.225 103.699 103.225 104.757C103.225 105.001 103.192 105.343 103.127 105.782C103.078 106.205 102.964 106.702 102.785 107.271C102.606 107.825 102.338 108.419 101.979 109.054C101.621 109.672 101.133 110.299 100.515 110.934C99.9124 111.552 99.1637 112.154 98.2686 112.74C97.3734 113.326 96.291 113.847 95.0215 114.303C93.7682 114.758 92.3034 115.133 90.627 115.426C88.9668 115.702 87.0625 115.857 84.9141 115.89C85.972 116.687 87.1195 117.542 88.3564 118.453C89.5934 119.348 90.8467 120.178 92.1162 120.943C93.3857 121.692 94.6309 122.319 95.8516 122.823C97.0723 123.312 98.2116 123.556 99.2695 123.556C99.7741 123.556 100.311 123.499 100.881 123.385C101.467 123.271 102.036 123.059 102.59 122.75C103.16 122.424 103.697 121.993 104.201 121.456C104.722 120.903 105.178 120.187 105.568 119.308ZM96.1689 105.904C96.1689 105.4 96.1283 104.895 96.0469 104.391C95.9655 103.886 95.7946 103.406 95.5342 102.95C95.2738 102.494 94.8994 102.063 94.4111 101.656C93.9229 101.249 93.2637 100.899 92.4336 100.606C91.6198 100.313 90.6107 100.086 89.4062 99.9229C88.2018 99.7438 86.7614 99.6543 85.085 99.6543C84.8245 99.6543 84.5723 99.6543 84.3281 99.6543C84.084 99.6543 83.8317 99.6706 83.5713 99.7031L83.8154 112.74C84.8408 112.724 85.8581 112.643 86.8672 112.496C87.8763 112.333 88.8366 112.114 89.748 111.837C90.6595 111.56 91.5059 111.227 92.2871 110.836C93.0846 110.445 93.7682 110.006 94.3379 109.518C94.9076 109.013 95.3551 108.46 95.6807 107.857C96.0062 107.255 96.1689 106.604 96.1689 105.904ZM112.429 120.04C112.64 120.951 112.925 121.847 113.283 122.726C113.641 123.588 114.081 124.361 114.602 125.045C115.122 125.729 115.725 126.282 116.408 126.705C117.092 127.128 117.865 127.34 118.728 127.34C119.867 127.34 120.86 127.104 121.706 126.632C122.552 126.16 123.244 125.566 123.781 124.85C124.318 124.117 124.693 123.32 124.904 122.457C125.116 121.578 125.157 120.74 125.026 119.942C125.482 120.121 125.856 120.357 126.149 120.65C126.459 120.943 126.695 121.269 126.857 121.627C127.036 121.969 127.159 122.327 127.224 122.701C127.289 123.059 127.321 123.409 127.321 123.751C127.321 124.532 127.093 125.289 126.638 126.021C126.182 126.738 125.539 127.381 124.709 127.95C123.895 128.504 122.927 128.951 121.804 129.293C120.681 129.635 119.452 129.806 118.117 129.806C116.327 129.806 114.724 129.456 113.308 128.756C111.908 128.056 110.72 127.112 109.743 125.924C108.767 124.719 108.018 123.312 107.497 121.7C106.976 120.089 106.716 118.372 106.716 116.549C106.716 114.693 106.976 112.984 107.497 111.422C108.018 109.843 108.783 108.5 109.792 107.394C110.817 106.287 112.071 105.449 113.552 104.879C115.033 104.309 116.742 104.081 118.679 104.195C120.013 104.293 121.242 104.675 122.365 105.343C123.488 106.01 124.465 106.873 125.295 107.931C126.141 108.972 126.817 110.169 127.321 111.52C127.842 112.87 128.16 114.278 128.273 115.743L112.429 120.04ZM111.965 116.109C111.965 116.337 111.965 116.565 111.965 116.793C111.965 117.005 111.981 117.224 112.014 117.452L122.731 113.546C122.373 112.374 121.966 111.373 121.511 110.543C121.071 109.697 120.607 109.005 120.119 108.468C119.631 107.931 119.134 107.54 118.63 107.296C118.142 107.035 117.67 106.905 117.214 106.905C116.53 106.905 115.928 107.035 115.407 107.296C114.886 107.556 114.431 107.914 114.04 108.37C113.666 108.81 113.34 109.33 113.063 109.933C112.803 110.535 112.591 111.178 112.429 111.861C112.266 112.545 112.144 113.253 112.062 113.985C111.997 114.701 111.965 115.41 111.965 116.109ZM138.259 107.662C138.633 107.206 139.04 106.791 139.479 106.417C139.919 106.026 140.399 105.693 140.92 105.416C141.441 105.123 141.994 104.895 142.58 104.732C143.182 104.57 143.825 104.488 144.509 104.488C145.762 104.537 146.95 104.83 148.073 105.367C149.213 105.904 150.205 106.677 151.052 107.687C151.914 108.679 152.598 109.908 153.103 111.373C153.607 112.822 153.859 114.482 153.859 116.354C153.859 118.632 153.591 120.626 153.054 122.335C152.517 124.044 151.784 125.468 150.856 126.607C149.929 127.73 148.838 128.577 147.585 129.146C146.348 129.716 145.021 130.001 143.605 130.001C142.368 130.001 141.221 129.789 140.163 129.366C139.105 128.943 138.186 128.357 137.404 127.608L137.16 133.102L142.043 135.738L130.056 137.789L133.742 134.103L132.741 107.955L128.298 106.197L138.405 104.488L138.259 107.662ZM143.752 107.589C143.524 107.589 143.199 107.63 142.775 107.711C142.352 107.792 141.872 107.979 141.335 108.272C140.814 108.565 140.261 108.989 139.675 109.542C139.105 110.095 138.56 110.844 138.039 111.788L137.551 123.946C138.072 124.76 138.706 125.436 139.455 125.973C140.22 126.493 141.066 126.754 141.994 126.754C143.101 126.754 144.053 126.477 144.851 125.924C145.648 125.37 146.299 124.605 146.804 123.629C147.325 122.636 147.699 121.472 147.927 120.138C148.171 118.803 148.293 117.354 148.293 115.792C148.293 114.653 148.195 113.587 148 112.594C147.805 111.585 147.52 110.714 147.146 109.981C146.771 109.233 146.299 108.647 145.729 108.224C145.16 107.8 144.501 107.589 143.752 107.589ZM156.765 116.744C156.765 114.921 157.049 113.237 157.619 111.69C158.205 110.128 159.011 108.777 160.036 107.638C161.078 106.498 162.307 105.611 163.723 104.977C165.155 104.326 166.717 104 168.41 104C170.054 104 171.56 104.309 172.927 104.928C174.294 105.53 175.482 106.384 176.491 107.491C177.5 108.598 178.306 109.924 178.908 111.471C179.51 113.017 179.868 114.726 179.982 116.598C180.096 118.6 179.885 120.414 179.348 122.042C178.827 123.653 178.054 125.029 177.028 126.168C176.003 127.291 174.774 128.162 173.342 128.78C171.926 129.399 170.388 129.708 168.728 129.708C167.132 129.708 165.611 129.423 164.162 128.854C162.73 128.268 161.46 127.421 160.354 126.314C159.263 125.208 158.392 123.857 157.741 122.262C157.09 120.65 156.765 118.811 156.765 116.744ZM162.771 117.159C162.771 118.591 162.974 119.885 163.381 121.041C163.788 122.197 164.333 123.181 165.017 123.995C165.7 124.793 166.49 125.411 167.385 125.851C168.28 126.29 169.224 126.51 170.217 126.51C171.21 126.51 172.137 126.298 173 125.875C173.863 125.436 174.611 124.825 175.246 124.044C175.881 123.246 176.377 122.294 176.735 121.188C177.093 120.081 177.272 118.852 177.272 117.501C177.272 116.166 177.093 114.913 176.735 113.741C176.377 112.553 175.873 111.52 175.222 110.641C174.587 109.762 173.83 109.07 172.951 108.565C172.072 108.061 171.112 107.809 170.07 107.809C169.143 107.809 168.239 108.02 167.36 108.443C166.498 108.867 165.725 109.485 165.041 110.299C164.357 111.096 163.804 112.073 163.381 113.229C162.974 114.384 162.771 115.694 162.771 117.159ZM199.611 112.35C199.465 111.747 199.253 111.235 198.977 110.812C198.716 110.388 198.415 110.038 198.073 109.762C197.748 109.469 197.398 109.249 197.023 109.103C196.649 108.94 196.275 108.818 195.9 108.736C195.021 108.557 194.086 108.565 193.093 108.761C192.751 108.875 192.385 109.054 191.994 109.298C191.652 109.526 191.262 109.835 190.822 110.226C190.383 110.6 189.911 111.104 189.406 111.739L189.846 125.899L194.24 128.097L181.301 129.244L184.646 125.851L186.013 108.858L180.812 106.49L189.211 104.903L189.309 107.955C189.878 107.271 190.464 106.71 191.066 106.271C191.669 105.831 192.214 105.473 192.702 105.196C193.272 104.887 193.825 104.651 194.362 104.488C195.339 104.26 196.332 104.171 197.341 104.22C197.764 104.236 198.203 104.285 198.659 104.366C199.131 104.448 199.603 104.578 200.075 104.757C200.563 104.92 201.035 105.147 201.491 105.44C201.947 105.717 202.386 106.067 202.81 106.49L199.611 112.35ZM205.251 118.307C205.251 116.777 205.406 115.255 205.715 113.741C206.04 112.211 206.39 110.812 206.765 109.542L202.541 109.811L214.455 96.7979C213.511 99.7764 212.746 102.462 212.16 104.854L221.657 105.66L220.412 108.59L211.208 109.249C210.98 110.437 210.801 111.495 210.671 112.423C210.557 113.334 210.459 114.107 210.378 114.742C210.297 115.491 210.24 116.142 210.207 116.695C210.207 118.323 210.305 119.788 210.5 121.09C210.695 122.392 210.996 123.507 211.403 124.435C211.826 125.346 212.355 126.054 212.99 126.559C213.641 127.047 214.414 127.291 215.31 127.291C216.14 127.291 216.831 127.128 217.385 126.803C217.954 126.461 218.41 126.03 218.752 125.509C219.094 124.972 219.338 124.378 219.484 123.727C219.631 123.059 219.704 122.4 219.704 121.749C219.704 121.147 219.655 120.561 219.558 119.991C220.257 120.349 220.786 120.927 221.145 121.725C221.519 122.506 221.706 123.36 221.706 124.288C221.706 125.248 221.543 126.095 221.218 126.827C220.909 127.56 220.477 128.178 219.924 128.683C219.37 129.171 218.719 129.545 217.971 129.806C217.222 130.066 216.416 130.196 215.554 130.196C215.033 130.196 214.414 130.139 213.698 130.025C212.998 129.911 212.266 129.7 211.501 129.391C210.736 129.098 209.979 128.674 209.23 128.121C208.482 127.568 207.814 126.852 207.229 125.973C206.643 125.094 206.162 124.028 205.788 122.774C205.43 121.505 205.251 120.016 205.251 118.307ZM103.908 154.651L97.7559 158.46L93.8984 181.8L98.5615 185.608H84.5967L87.1113 183.094L84.2061 164.197L80.2998 184.144L84.3525 187.342L70.2656 186.609L75.002 182.947L68.1172 158.191L62.5508 155.457L79.8115 152.552L74.9043 156.141L77.9072 179.31L82.0576 162.708L78.7617 160.34L91.5059 158.704L87.2578 162.098L90.3096 177.601L94.4111 157.288L89.748 153.65L103.908 154.651ZM109.255 178.04C109.466 178.951 109.751 179.847 110.109 180.726C110.467 181.588 110.907 182.361 111.428 183.045C111.949 183.729 112.551 184.282 113.234 184.705C113.918 185.128 114.691 185.34 115.554 185.34C116.693 185.34 117.686 185.104 118.532 184.632C119.379 184.16 120.07 183.566 120.607 182.85C121.145 182.117 121.519 181.32 121.73 180.457C121.942 179.578 121.983 178.74 121.853 177.942C122.308 178.121 122.683 178.357 122.976 178.65C123.285 178.943 123.521 179.269 123.684 179.627C123.863 179.969 123.985 180.327 124.05 180.701C124.115 181.059 124.147 181.409 124.147 181.751C124.147 182.532 123.92 183.289 123.464 184.021C123.008 184.738 122.365 185.381 121.535 185.95C120.721 186.504 119.753 186.951 118.63 187.293C117.507 187.635 116.278 187.806 114.943 187.806C113.153 187.806 111.55 187.456 110.134 186.756C108.734 186.056 107.546 185.112 106.569 183.924C105.593 182.719 104.844 181.312 104.323 179.7C103.802 178.089 103.542 176.372 103.542 174.549C103.542 172.693 103.802 170.984 104.323 169.422C104.844 167.843 105.609 166.5 106.618 165.394C107.644 164.287 108.897 163.449 110.378 162.879C111.859 162.309 113.568 162.081 115.505 162.195C116.84 162.293 118.068 162.675 119.191 163.343C120.314 164.01 121.291 164.873 122.121 165.931C122.967 166.972 123.643 168.169 124.147 169.52C124.668 170.87 124.986 172.278 125.1 173.743L109.255 178.04ZM108.791 174.109C108.791 174.337 108.791 174.565 108.791 174.793C108.791 175.005 108.807 175.224 108.84 175.452L119.558 171.546C119.2 170.374 118.793 169.373 118.337 168.543C117.897 167.697 117.434 167.005 116.945 166.468C116.457 165.931 115.961 165.54 115.456 165.296C114.968 165.035 114.496 164.905 114.04 164.905C113.356 164.905 112.754 165.035 112.233 165.296C111.713 165.556 111.257 165.914 110.866 166.37C110.492 166.81 110.166 167.33 109.89 167.933C109.629 168.535 109.418 169.178 109.255 169.861C109.092 170.545 108.97 171.253 108.889 171.985C108.824 172.701 108.791 173.41 108.791 174.109ZM139.211 187.562C138.332 187.562 137.518 187.423 136.77 187.146C136.021 186.87 135.354 186.495 134.768 186.023C134.182 185.551 133.669 185.006 133.229 184.388C132.806 183.753 132.473 183.077 132.229 182.361L129.763 188.05L128.811 158.899L122.683 156.507L135.622 155.042C135.297 157.418 135.02 159.542 134.792 161.414C134.564 163.27 134.377 164.93 134.23 166.395C135.109 165.076 136.175 164.01 137.429 163.196C138.698 162.366 140.147 161.951 141.774 161.951C142.979 161.951 144.029 162.098 144.924 162.391C145.819 162.684 146.584 163.09 147.219 163.611C147.87 164.116 148.399 164.718 148.806 165.418C149.229 166.102 149.562 166.834 149.807 167.615C150.051 168.396 150.222 169.202 150.319 170.032C150.417 170.862 150.466 171.684 150.466 172.498C150.466 174.695 150.222 176.722 149.733 178.577C149.261 180.416 148.553 182.003 147.609 183.338C146.682 184.673 145.51 185.714 144.094 186.463C142.694 187.195 141.066 187.562 139.211 187.562ZM139.577 165.711C138.894 165.711 138.251 165.882 137.648 166.224C137.046 166.565 136.493 167.029 135.988 167.615C135.5 168.201 135.061 168.885 134.67 169.666C134.296 170.431 133.978 171.245 133.718 172.107C133.685 172.579 133.661 172.986 133.645 173.328C133.628 173.654 133.62 173.93 133.62 174.158C133.604 174.435 133.604 174.663 133.62 174.842C133.62 176.73 133.758 178.292 134.035 179.529C134.312 180.766 134.686 181.759 135.158 182.508C135.63 183.24 136.175 183.761 136.794 184.07C137.429 184.363 138.088 184.51 138.771 184.51C139.455 184.51 140.155 184.249 140.871 183.729C141.587 183.208 142.238 182.459 142.824 181.482C143.426 180.506 143.915 179.326 144.289 177.942C144.68 176.559 144.875 174.996 144.875 173.255C144.875 172.034 144.729 170.952 144.436 170.008C144.143 169.064 143.744 168.274 143.239 167.64C142.751 167.005 142.189 166.525 141.555 166.199C140.92 165.874 140.261 165.711 139.577 165.711ZM162.941 162.146C163.56 162.146 164.187 162.203 164.821 162.317C165.456 162.415 166.075 162.57 166.677 162.781C167.295 162.977 167.873 163.221 168.41 163.514C168.964 163.79 169.46 164.1 169.899 164.441L173.903 159.51L172.097 171.692C171.901 170.846 171.56 170.016 171.071 169.202C170.583 168.372 169.973 167.632 169.24 166.98C168.524 166.329 167.694 165.809 166.75 165.418C165.806 165.011 164.772 164.808 163.649 164.808C163.031 164.808 162.437 164.881 161.867 165.027C161.298 165.158 160.793 165.377 160.354 165.687C159.93 165.996 159.589 166.386 159.328 166.858C159.084 167.33 158.962 167.892 158.962 168.543C158.962 169.324 159.174 169.959 159.597 170.447C160.036 170.936 160.606 171.351 161.306 171.692C162.006 172.018 162.803 172.303 163.698 172.547C164.593 172.775 165.513 173.019 166.457 173.279C167.401 173.54 168.321 173.849 169.216 174.207C170.111 174.549 170.909 174.996 171.608 175.55C172.308 176.103 172.87 176.795 173.293 177.625C173.732 178.439 173.952 179.448 173.952 180.652C173.952 182.003 173.684 183.159 173.146 184.119C172.626 185.063 171.95 185.844 171.12 186.463C170.29 187.065 169.37 187.505 168.361 187.781C167.352 188.058 166.368 188.196 165.407 188.196C164.626 188.196 163.845 188.115 163.063 187.952C162.282 187.789 161.525 187.562 160.793 187.269C160.061 186.976 159.361 186.626 158.693 186.219C158.042 185.812 157.448 185.372 156.911 184.9L153.2 189.856L154.348 177.747C154.868 178.854 155.495 179.887 156.228 180.848C156.96 181.808 157.774 182.646 158.669 183.362C159.564 184.062 160.524 184.616 161.55 185.022C162.575 185.413 163.641 185.608 164.748 185.608C166.034 185.608 167.059 185.34 167.824 184.803C168.605 184.249 168.996 183.468 168.996 182.459C168.996 181.808 168.776 181.271 168.337 180.848C167.914 180.408 167.344 180.026 166.628 179.7C165.928 179.375 165.131 179.082 164.235 178.821C163.34 178.561 162.421 178.276 161.477 177.967C160.533 177.658 159.613 177.299 158.718 176.893C157.823 176.469 157.017 175.949 156.301 175.33C155.601 174.695 155.031 173.93 154.592 173.035C154.169 172.124 153.957 171.025 153.957 169.739C153.957 168.632 154.12 167.672 154.445 166.858C154.771 166.045 155.194 165.361 155.715 164.808C156.252 164.238 156.846 163.782 157.497 163.44C158.164 163.082 158.832 162.814 159.499 162.635C160.166 162.439 160.801 162.309 161.403 162.244C162.006 162.179 162.518 162.146 162.941 162.146ZM176.101 187.244L179.934 184.241L179.104 167.396L174.587 164.441L185.085 162.659L183.205 182.239L188.454 185.511L176.101 187.244ZM185.354 156.751C185.354 157.239 185.256 157.703 185.061 158.143C184.865 158.566 184.597 158.948 184.255 159.29C183.913 159.616 183.522 159.876 183.083 160.071C182.644 160.25 182.18 160.34 181.691 160.34C181.171 160.34 180.682 160.25 180.227 160.071C179.787 159.876 179.405 159.616 179.079 159.29C178.754 158.948 178.493 158.566 178.298 158.143C178.103 157.703 178.005 157.239 178.005 156.751C178.005 156.246 178.103 155.783 178.298 155.359C178.493 154.92 178.754 154.537 179.079 154.212C179.405 153.886 179.787 153.634 180.227 153.455C180.682 153.26 181.171 153.162 181.691 153.162C182.18 153.162 182.644 153.26 183.083 153.455C183.522 153.634 183.913 153.886 184.255 154.212C184.597 154.537 184.865 154.92 185.061 155.359C185.256 155.783 185.354 156.246 185.354 156.751ZM190.896 176.307C190.896 174.777 191.05 173.255 191.359 171.741C191.685 170.211 192.035 168.812 192.409 167.542L188.186 167.811L200.1 154.798C199.156 157.776 198.391 160.462 197.805 162.854L207.302 163.66L206.057 166.59L196.853 167.249C196.625 168.437 196.446 169.495 196.315 170.423C196.201 171.334 196.104 172.107 196.022 172.742C195.941 173.491 195.884 174.142 195.852 174.695C195.852 176.323 195.949 177.788 196.145 179.09C196.34 180.392 196.641 181.507 197.048 182.435C197.471 183.346 198 184.054 198.635 184.559C199.286 185.047 200.059 185.291 200.954 185.291C201.784 185.291 202.476 185.128 203.029 184.803C203.599 184.461 204.055 184.03 204.396 183.509C204.738 182.972 204.982 182.378 205.129 181.727C205.275 181.059 205.349 180.4 205.349 179.749C205.349 179.147 205.3 178.561 205.202 177.991C205.902 178.349 206.431 178.927 206.789 179.725C207.163 180.506 207.351 181.36 207.351 182.288C207.351 183.248 207.188 184.095 206.862 184.827C206.553 185.56 206.122 186.178 205.568 186.683C205.015 187.171 204.364 187.545 203.615 187.806C202.867 188.066 202.061 188.196 201.198 188.196C200.677 188.196 200.059 188.139 199.343 188.025C198.643 187.911 197.91 187.7 197.146 187.391C196.381 187.098 195.624 186.674 194.875 186.121C194.126 185.568 193.459 184.852 192.873 183.973C192.287 183.094 191.807 182.028 191.433 180.774C191.075 179.505 190.896 178.016 190.896 176.307ZM214.626 178.04C214.838 178.951 215.122 179.847 215.48 180.726C215.839 181.588 216.278 182.361 216.799 183.045C217.32 183.729 217.922 184.282 218.605 184.705C219.289 185.128 220.062 185.34 220.925 185.34C222.064 185.34 223.057 185.104 223.903 184.632C224.75 184.16 225.441 183.566 225.979 182.85C226.516 182.117 226.89 181.32 227.102 180.457C227.313 179.578 227.354 178.74 227.224 177.942C227.679 178.121 228.054 178.357 228.347 178.65C228.656 178.943 228.892 179.269 229.055 179.627C229.234 179.969 229.356 180.327 229.421 180.701C229.486 181.059 229.519 181.409 229.519 181.751C229.519 182.532 229.291 183.289 228.835 184.021C228.379 184.738 227.736 185.381 226.906 185.95C226.092 186.504 225.124 186.951 224.001 187.293C222.878 187.635 221.649 187.806 220.314 187.806C218.524 187.806 216.921 187.456 215.505 186.756C214.105 186.056 212.917 185.112 211.94 183.924C210.964 182.719 210.215 181.312 209.694 179.7C209.174 178.089 208.913 176.372 208.913 174.549C208.913 172.693 209.174 170.984 209.694 169.422C210.215 167.843 210.98 166.5 211.989 165.394C213.015 164.287 214.268 163.449 215.749 162.879C217.23 162.309 218.939 162.081 220.876 162.195C222.211 162.293 223.439 162.675 224.562 163.343C225.686 164.01 226.662 164.873 227.492 165.931C228.339 166.972 229.014 168.169 229.519 169.52C230.039 170.87 230.357 172.278 230.471 173.743L214.626 178.04ZM214.162 174.109C214.162 174.337 214.162 174.565 214.162 174.793C214.162 175.005 214.178 175.224 214.211 175.452L224.929 171.546C224.571 170.374 224.164 169.373 223.708 168.543C223.269 167.697 222.805 167.005 222.316 166.468C221.828 165.931 221.332 165.54 220.827 165.296C220.339 165.035 219.867 164.905 219.411 164.905C218.728 164.905 218.125 165.035 217.604 165.296C217.084 165.556 216.628 165.914 216.237 166.37C215.863 166.81 215.537 167.33 215.261 167.933C215 168.535 214.789 169.178 214.626 169.861C214.463 170.545 214.341 171.253 214.26 171.985C214.195 172.701 214.162 173.41 214.162 174.109Z" fill="white"/>
</g>
<path d="M32 40C32 29.5066 40.5066 21 51 21H245C255.493 21 264 29.5066 264 40V191C264 201.493 255.493 210 245 210H51C40.5066 210 32 201.493 32 191V40Z" fill="white" fill-opacity="0.65"/>
<path d="M135.241 239.982C135.055 241.954 134.327 243.495 133.058 244.604C131.788 245.704 130.1 246.254 127.992 246.254C126.52 246.254 125.22 245.907 124.095 245.213C122.978 244.51 122.114 243.516 121.505 242.229C120.896 240.943 120.578 239.449 120.553 237.748V236.021C120.553 234.278 120.862 232.742 121.479 231.413C122.097 230.084 122.982 229.06 124.133 228.341C125.292 227.621 126.63 227.262 128.145 227.262C130.184 227.262 131.826 227.816 133.07 228.925C134.314 230.034 135.038 231.599 135.241 233.622H132.042C131.89 232.293 131.5 231.337 130.874 230.753C130.256 230.16 129.346 229.864 128.145 229.864C126.748 229.864 125.673 230.376 124.92 231.4C124.175 232.416 123.794 233.91 123.777 235.882V237.52C123.777 239.517 124.133 241.04 124.844 242.09C125.563 243.139 126.613 243.664 127.992 243.664C129.253 243.664 130.201 243.381 130.836 242.813C131.471 242.246 131.873 241.303 132.042 239.982H135.241ZM141.106 246H138.021V226.5H141.106V246ZM147.759 246H144.674V232.264H147.759V246ZM144.483 228.696C144.483 228.222 144.632 227.829 144.928 227.516C145.232 227.202 145.664 227.046 146.223 227.046C146.781 227.046 147.213 227.202 147.518 227.516C147.822 227.829 147.975 228.222 147.975 228.696C147.975 229.162 147.822 229.551 147.518 229.864C147.213 230.169 146.781 230.321 146.223 230.321C145.664 230.321 145.232 230.169 144.928 229.864C144.632 229.551 144.483 229.162 144.483 228.696ZM156.772 243.791C157.543 243.791 158.182 243.567 158.689 243.118C159.197 242.67 159.468 242.115 159.502 241.455H162.409C162.375 242.31 162.109 243.11 161.609 243.854C161.11 244.591 160.433 245.175 159.578 245.606C158.723 246.038 157.801 246.254 156.811 246.254C154.889 246.254 153.366 245.632 152.24 244.388C151.115 243.144 150.552 241.425 150.552 239.233V238.916C150.552 236.826 151.11 235.154 152.228 233.901C153.345 232.64 154.868 232.01 156.798 232.01C158.431 232.01 159.76 232.488 160.784 233.444C161.817 234.392 162.358 235.641 162.409 237.189H159.502C159.468 236.402 159.197 235.755 158.689 235.247C158.19 234.739 157.551 234.485 156.772 234.485C155.774 234.485 155.004 234.849 154.462 235.577C153.92 236.297 153.645 237.393 153.637 238.865V239.36C153.637 240.85 153.903 241.963 154.437 242.699C154.978 243.427 155.757 243.791 156.772 243.791ZM169.201 240.109L167.83 241.519V246H164.745V226.5H167.83V237.748L168.795 236.542L172.591 232.264H176.298L171.194 237.989L176.844 246H173.276L169.201 240.109Z" fill="white"/>
<defs>
<filter id="filter0_d" x="0" y="0" width="296" height="296" filterUnits="userSpaceOnUse" color-interpolation-filters="sRGB">
<feFlood flood-opacity="0" result="BackgroundImageFix"/>
<feColorMatrix in="SourceAlpha" type="matrix" values="0 0 0 0 0 0 0 0 0 0 0 0 0 0 0 0 0 0 127 0"/>
<feOffset dy="11"/>
<feGaussianBlur stdDeviation="10"/>
<feColorMatrix type="matrix" values="0 0 0 0 0 0 0 0 0 0 0 0 0 0 0 0 0 0 0.25 0"/>
<feBlend mode="normal" in2="BackgroundImageFix" result="effect1_dropShadow"/>
<feBlend mode="normal" in="SourceGraphic" in2="effect1_dropShadow" result="shape"/>
</filter>
</defs>
</svg>
